<?xml version="1.0" encoding="utf-8" standalone="no"?>
<!DOCTYPE svg PUBLIC "-//W3C//DTD SVG 1.1//EN"
  "http://www.w3.org/Graphics/SVG/1.1/DTD/svg11.dtd">
<!-- Created with matplotlib (http://matplotlib.org/) -->
<svg height="338pt" version="1.1" viewBox="0 0 460 338" width="460pt" xmlns="http://www.w3.org/2000/svg" xmlns:xlink="http://www.w3.org/1999/xlink">
 <defs>
  <style type="text/css">
*{stroke-linecap:butt;stroke-linejoin:round;}
  </style>
 </defs>
 <g id="figure_1">
  <g id="patch_1">
   <path d="M 0 338.4 
L 460.8 338.4 
L 460.8 0 
L 0 0 
z
" style="fill:#ffffff;"/>
  </g>
  <g id="axes_1">
   <g id="patch_2">
    <path d="M 57.6 301.176 
L 414.72 301.176 
L 414.72 40.608 
L 57.6 40.608 
z
" style="fill:#ffffff;"/>
   </g>
   <g id="matplotlib.axis_1">
    <g id="xtick_1">
     <g id="line2d_1">
      <defs>
       <path d="M 0 0 
L 0 3.5 
" id="m896edfd5c5" style="stroke:#000000;stroke-width:0.8;"/>
      </defs>
      <g>
       <use style="stroke:#000000;stroke-width:0.8;" x="81.148873" xlink:href="#m896edfd5c5" y="301.176"/>
      </g>
     </g>
     <g id="text_1">
      <!-- −6 -->
      <defs>
       <path d="M 10.59375 35.5 
L 73.1875 35.5 
L 73.1875 27.203125 
L 10.59375 27.203125 
z
" id="DejaVuSans-2212"/>
       <path d="M 33.015625 40.375 
Q 26.375 40.375 22.484375 35.828125 
Q 18.609375 31.296875 18.609375 23.390625 
Q 18.609375 15.53125 22.484375 10.953125 
Q 26.375 6.390625 33.015625 6.390625 
Q 39.65625 6.390625 43.53125 10.953125 
Q 47.40625 15.53125 47.40625 23.390625 
Q 47.40625 31.296875 43.53125 35.828125 
Q 39.65625 40.375 33.015625 40.375 
z
M 52.59375 71.296875 
L 52.59375 62.3125 
Q 48.875 64.0625 45.09375 64.984375 
Q 41.3125 65.921875 37.59375 65.921875 
Q 27.828125 65.921875 22.671875 59.328125 
Q 17.53125 52.734375 16.796875 39.40625 
Q 19.671875 43.65625 24.015625 45.921875 
Q 28.375 48.1875 33.59375 48.1875 
Q 44.578125 48.1875 50.953125 41.515625 
Q 57.328125 34.859375 57.328125 23.390625 
Q 57.328125 12.15625 50.6875 5.359375 
Q 44.046875 -1.421875 33.015625 -1.421875 
Q 20.359375 -1.421875 13.671875 8.265625 
Q 6.984375 17.96875 6.984375 36.375 
Q 6.984375 53.65625 15.1875 63.9375 
Q 23.390625 74.21875 37.203125 74.21875 
Q 40.921875 74.21875 44.703125 73.484375 
Q 48.484375 72.75 52.59375 71.296875 
z
" id="DejaVuSans-36"/>
      </defs>
      <g transform="translate(73.777779 315.774438)scale(0.1 -0.1)">
       <use xlink:href="#DejaVuSans-2212"/>
       <use x="83.789062" xlink:href="#DejaVuSans-36"/>
      </g>
     </g>
    </g>
    <g id="xtick_2">
     <g id="line2d_2">
      <g>
       <use style="stroke:#000000;stroke-width:0.8;" x="132.819249" xlink:href="#m896edfd5c5" y="301.176"/>
      </g>
     </g>
     <g id="text_2">
      <!-- −4 -->
      <defs>
       <path d="M 37.796875 64.3125 
L 12.890625 25.390625 
L 37.796875 25.390625 
z
M 35.203125 72.90625 
L 47.609375 72.90625 
L 47.609375 25.390625 
L 58.015625 25.390625 
L 58.015625 17.1875 
L 47.609375 17.1875 
L 47.609375 0 
L 37.796875 0 
L 37.796875 17.1875 
L 4.890625 17.1875 
L 4.890625 26.703125 
z
" id="DejaVuSans-34"/>
      </defs>
      <g transform="translate(125.448155 315.774438)scale(0.1 -0.1)">
       <use xlink:href="#DejaVuSans-2212"/>
       <use x="83.789062" xlink:href="#DejaVuSans-34"/>
      </g>
     </g>
    </g>
    <g id="xtick_3">
     <g id="line2d_3">
      <g>
       <use style="stroke:#000000;stroke-width:0.8;" x="184.489624" xlink:href="#m896edfd5c5" y="301.176"/>
      </g>
     </g>
     <g id="text_3">
      <!-- −2 -->
      <defs>
       <path d="M 19.1875 8.296875 
L 53.609375 8.296875 
L 53.609375 0 
L 7.328125 0 
L 7.328125 8.296875 
Q 12.9375 14.109375 22.625 23.890625 
Q 32.328125 33.6875 34.8125 36.53125 
Q 39.546875 41.84375 41.421875 45.53125 
Q 43.3125 49.21875 43.3125 52.78125 
Q 43.3125 58.59375 39.234375 62.25 
Q 35.15625 65.921875 28.609375 65.921875 
Q 23.96875 65.921875 18.8125 64.3125 
Q 13.671875 62.703125 7.8125 59.421875 
L 7.8125 69.390625 
Q 13.765625 71.78125 18.9375 73 
Q 24.125 74.21875 28.421875 74.21875 
Q 39.75 74.21875 46.484375 68.546875 
Q 53.21875 62.890625 53.21875 53.421875 
Q 53.21875 48.921875 51.53125 44.890625 
Q 49.859375 40.875 45.40625 35.40625 
Q 44.1875 33.984375 37.640625 27.21875 
Q 31.109375 20.453125 19.1875 8.296875 
z
" id="DejaVuSans-32"/>
      </defs>
      <g transform="translate(177.118531 315.774438)scale(0.1 -0.1)">
       <use xlink:href="#DejaVuSans-2212"/>
       <use x="83.789062" xlink:href="#DejaVuSans-32"/>
      </g>
     </g>
    </g>
    <g id="xtick_4">
     <g id="line2d_4">
      <g>
       <use style="stroke:#000000;stroke-width:0.8;" x="236.16" xlink:href="#m896edfd5c5" y="301.176"/>
      </g>
     </g>
     <g id="text_4">
      <!-- 0 -->
      <defs>
       <path d="M 31.78125 66.40625 
Q 24.171875 66.40625 20.328125 58.90625 
Q 16.5 51.421875 16.5 36.375 
Q 16.5 21.390625 20.328125 13.890625 
Q 24.171875 6.390625 31.78125 6.390625 
Q 39.453125 6.390625 43.28125 13.890625 
Q 47.125 21.390625 47.125 36.375 
Q 47.125 51.421875 43.28125 58.90625 
Q 39.453125 66.40625 31.78125 66.40625 
z
M 31.78125 74.21875 
Q 44.046875 74.21875 50.515625 64.515625 
Q 56.984375 54.828125 56.984375 36.375 
Q 56.984375 17.96875 50.515625 8.265625 
Q 44.046875 -1.421875 31.78125 -1.421875 
Q 19.53125 -1.421875 13.0625 8.265625 
Q 6.59375 17.96875 6.59375 36.375 
Q 6.59375 54.828125 13.0625 64.515625 
Q 19.53125 74.21875 31.78125 74.21875 
z
" id="DejaVuSans-30"/>
      </defs>
      <g transform="translate(232.97875 315.774438)scale(0.1 -0.1)">
       <use xlink:href="#DejaVuSans-30"/>
      </g>
     </g>
    </g>
    <g id="xtick_5">
     <g id="line2d_5">
      <g>
       <use style="stroke:#000000;stroke-width:0.8;" x="287.830376" xlink:href="#m896edfd5c5" y="301.176"/>
      </g>
     </g>
     <g id="text_5">
      <!-- 2 -->
      <g transform="translate(284.649126 315.774438)scale(0.1 -0.1)">
       <use xlink:href="#DejaVuSans-32"/>
      </g>
     </g>
    </g>
    <g id="xtick_6">
     <g id="line2d_6">
      <g>
       <use style="stroke:#000000;stroke-width:0.8;" x="339.500751" xlink:href="#m896edfd5c5" y="301.176"/>
      </g>
     </g>
     <g id="text_6">
      <!-- 4 -->
      <g transform="translate(336.319501 315.774438)scale(0.1 -0.1)">
       <use xlink:href="#DejaVuSans-34"/>
      </g>
     </g>
    </g>
    <g id="xtick_7">
     <g id="line2d_7">
      <g>
       <use style="stroke:#000000;stroke-width:0.8;" x="391.171127" xlink:href="#m896edfd5c5" y="301.176"/>
      </g>
     </g>
     <g id="text_7">
      <!-- 6 -->
      <g transform="translate(387.989877 315.774438)scale(0.1 -0.1)">
       <use xlink:href="#DejaVuSans-36"/>
      </g>
     </g>
    </g>
   </g>
   <g id="matplotlib.axis_2">
    <g id="ytick_1">
     <g id="line2d_8">
      <defs>
       <path d="M 0 0 
L -3.5 0 
" id="m40a3acd810" style="stroke:#000000;stroke-width:0.8;"/>
      </defs>
      <g>
       <use style="stroke:#000000;stroke-width:0.8;" x="57.6" xlink:href="#m40a3acd810" y="289.332146"/>
      </g>
     </g>
     <g id="text_8">
      <!-- −3 -->
      <defs>
       <path d="M 40.578125 39.3125 
Q 47.65625 37.796875 51.625 33 
Q 55.609375 28.21875 55.609375 21.1875 
Q 55.609375 10.40625 48.1875 4.484375 
Q 40.765625 -1.421875 27.09375 -1.421875 
Q 22.515625 -1.421875 17.65625 -0.515625 
Q 12.796875 0.390625 7.625 2.203125 
L 7.625 11.71875 
Q 11.71875 9.328125 16.59375 8.109375 
Q 21.484375 6.890625 26.8125 6.890625 
Q 36.078125 6.890625 40.9375 10.546875 
Q 45.796875 14.203125 45.796875 21.1875 
Q 45.796875 27.640625 41.28125 31.265625 
Q 36.765625 34.90625 28.71875 34.90625 
L 20.21875 34.90625 
L 20.21875 43.015625 
L 29.109375 43.015625 
Q 36.375 43.015625 40.234375 45.921875 
Q 44.09375 48.828125 44.09375 54.296875 
Q 44.09375 59.90625 40.109375 62.90625 
Q 36.140625 65.921875 28.71875 65.921875 
Q 24.65625 65.921875 20.015625 65.03125 
Q 15.375 64.15625 9.8125 62.3125 
L 9.8125 71.09375 
Q 15.4375 72.65625 20.34375 73.4375 
Q 25.25 74.21875 29.59375 74.21875 
Q 40.828125 74.21875 47.359375 69.109375 
Q 53.90625 64.015625 53.90625 55.328125 
Q 53.90625 49.265625 50.4375 45.09375 
Q 46.96875 40.921875 40.578125 39.3125 
z
" id="DejaVuSans-33"/>
      </defs>
      <g transform="translate(35.857813 293.131365)scale(0.1 -0.1)">
       <use xlink:href="#DejaVuSans-2212"/>
       <use x="83.789062" xlink:href="#DejaVuSans-33"/>
      </g>
     </g>
    </g>
    <g id="ytick_2">
     <g id="line2d_9">
      <g>
       <use style="stroke:#000000;stroke-width:0.8;" x="57.6" xlink:href="#m40a3acd810" y="249.852114"/>
      </g>
     </g>
     <g id="text_9">
      <!-- −2 -->
      <g transform="translate(35.857813 253.651333)scale(0.1 -0.1)">
       <use xlink:href="#DejaVuSans-2212"/>
       <use x="83.789062" xlink:href="#DejaVuSans-32"/>
      </g>
     </g>
    </g>
    <g id="ytick_3">
     <g id="line2d_10">
      <g>
       <use style="stroke:#000000;stroke-width:0.8;" x="57.6" xlink:href="#m40a3acd810" y="210.372081"/>
      </g>
     </g>
     <g id="text_10">
      <!-- −1 -->
      <defs>
       <path d="M 12.40625 8.296875 
L 28.515625 8.296875 
L 28.515625 63.921875 
L 10.984375 60.40625 
L 10.984375 69.390625 
L 28.421875 72.90625 
L 38.28125 72.90625 
L 38.28125 8.296875 
L 54.390625 8.296875 
L 54.390625 0 
L 12.40625 0 
z
" id="DejaVuSans-31"/>
      </defs>
      <g transform="translate(35.857813 214.1713)scale(0.1 -0.1)">
       <use xlink:href="#DejaVuSans-2212"/>
       <use x="83.789062" xlink:href="#DejaVuSans-31"/>
      </g>
     </g>
    </g>
    <g id="ytick_4">
     <g id="line2d_11">
      <g>
       <use style="stroke:#000000;stroke-width:0.8;" x="57.6" xlink:href="#m40a3acd810" y="170.892049"/>
      </g>
     </g>
     <g id="text_11">
      <!-- 0 -->
      <g transform="translate(44.2375 174.691268)scale(0.1 -0.1)">
       <use xlink:href="#DejaVuSans-30"/>
      </g>
     </g>
    </g>
    <g id="ytick_5">
     <g id="line2d_12">
      <g>
       <use style="stroke:#000000;stroke-width:0.8;" x="57.6" xlink:href="#m40a3acd810" y="131.412016"/>
      </g>
     </g>
     <g id="text_12">
      <!-- 1 -->
      <g transform="translate(44.2375 135.211235)scale(0.1 -0.1)">
       <use xlink:href="#DejaVuSans-31"/>
      </g>
     </g>
    </g>
    <g id="ytick_6">
     <g id="line2d_13">
      <g>
       <use style="stroke:#000000;stroke-width:0.8;" x="57.6" xlink:href="#m40a3acd810" y="91.931984"/>
      </g>
     </g>
     <g id="text_13">
      <!-- 2 -->
      <g transform="translate(44.2375 95.731202)scale(0.1 -0.1)">
       <use xlink:href="#DejaVuSans-32"/>
      </g>
     </g>
    </g>
    <g id="ytick_7">
     <g id="line2d_14">
      <g>
       <use style="stroke:#000000;stroke-width:0.8;" x="57.6" xlink:href="#m40a3acd810" y="52.451951"/>
      </g>
     </g>
     <g id="text_14">
      <!-- 3 -->
      <g transform="translate(44.2375 56.25117)scale(0.1 -0.1)">
       <use xlink:href="#DejaVuSans-33"/>
      </g>
     </g>
    </g>
   </g>
   <g id="line2d_15">
    <path clip-path="url(#pe3b6abd1ed)" d="M 73.832727 170.892049 
L 81.307256 137.101496 
L 85.53199 119.071781 
L 88.781785 106.119661 
L 91.706601 95.33237 
L 94.306437 86.551769 
L 96.581294 79.565944 
L 98.856151 73.287737 
L 100.806028 68.506654 
L 102.755905 64.30851 
L 104.380803 61.272704 
L 106.0057 58.670382 
L 107.630598 56.511835 
L 108.930516 55.110311 
L 110.230434 54.001847 
L 111.530352 53.189249 
L 112.83027 52.674575 
L 114.130188 52.459125 
L 115.105127 52.494262 
L 116.405045 52.803313 
L 117.704963 53.411264 
L 119.004881 54.316577 
L 120.304799 55.516958 
L 121.604717 57.009371 
L 123.229615 59.279731 
L 124.854513 61.991456 
L 126.47941 65.133823 
L 128.429287 69.455496 
L 130.379165 74.354706 
L 132.654021 80.763004 
L 134.928878 87.869646 
L 137.528714 96.775768 
L 140.45353 107.686756 
L 143.703325 120.752725 
L 147.603079 137.458645 
L 152.802752 160.847627 
L 163.202097 207.881489 
L 167.101851 224.380449 
L 170.351646 237.215517 
L 173.276462 247.876445 
L 175.876298 256.529354 
L 178.151155 263.392636 
L 180.426011 269.539199 
L 182.375889 274.200974 
L 184.325766 278.274551 
L 185.950663 281.203045 
L 187.575561 283.69532 
L 189.200459 285.74152 
L 190.500377 287.051809 
L 191.800295 288.068081 
L 193.100213 288.787764 
L 194.400131 289.209035 
L 195.700049 289.330829 
L 196.674988 289.225428 
L 197.974906 288.822851 
L 199.274824 288.121773 
L 200.574742 287.123971 
L 201.87466 285.831968 
L 203.174578 284.249036 
L 204.799476 281.867424 
L 206.424373 279.046966 
L 208.049271 275.798815 
L 209.999148 271.354681 
L 211.949025 266.338555 
L 214.223882 259.80175 
L 216.498739 252.576049 
L 219.098575 243.546608 
L 222.023391 232.514621 
L 225.273186 219.338033 
L 229.17294 202.534815 
L 234.697592 177.592803 
L 243.797019 136.388202 
L 247.696773 119.742644 
L 250.946568 106.744599 
L 253.871384 95.907507 
L 256.47122 87.076436 
L 258.746077 80.042075 
L 261.020934 73.711644 
L 262.970811 68.883166 
L 264.920688 64.635484 
L 266.545586 61.556963 
L 268.170483 58.910801 
L 269.795381 56.707463 
L 271.095299 55.26954 
L 272.395217 54.124275 
L 273.695135 53.274566 
L 274.995053 52.722564 
L 276.294971 52.469667 
L 277.26991 52.476694 
L 278.244848 52.652333 
L 279.544767 53.148337 
L 280.844685 53.942367 
L 282.144603 55.032413 
L 283.444521 56.415718 
L 284.744439 58.088778 
L 286.369337 60.581053 
L 287.994234 63.509547 
L 289.619132 66.862679 
L 291.569009 71.428175 
L 293.518886 76.559976 
L 295.793743 83.223672 
L 298.0686 90.566645 
L 300.668436 99.717174 
L 303.593251 110.867432 
L 306.843047 124.151381 
L 310.742801 141.047743 
L 316.592432 167.540329 
L 325.0419 205.752032 
L 328.941654 222.37714 
L 332.19145 235.352286 
L 335.116265 246.164531 
L 337.716102 254.970411 
L 339.990958 261.980539 
L 342.265815 268.284889 
L 344.215692 273.089693 
L 346.165569 277.312627 
L 347.790467 280.369805 
L 349.415364 282.99406 
L 351.040262 285.175014 
L 352.34018 286.594744 
L 353.640098 287.721614 
L 354.940016 288.552772 
L 356.239934 289.086113 
L 357.539853 289.320287 
L 358.514791 289.299205 
L 359.48973 289.109523 
L 360.789648 288.594848 
L 362.089566 287.782251 
L 363.389484 286.673787 
L 364.689402 285.272262 
L 365.98932 283.581225 
L 367.614218 281.066891 
L 369.239115 278.116876 
L 370.864013 274.742846 
L 372.81389 270.153212 
L 374.763767 264.998427 
L 377.038624 258.30955 
L 379.313481 250.943339 
L 381.913317 241.768864 
L 384.838133 230.595281 
L 388.087928 217.290253 
L 391.987682 200.375763 
L 397.837314 173.871439 
L 398.487273 170.892049 
L 398.487273 170.892049 
" style="fill:none;stroke:#008000;stroke-linecap:square;stroke-width:1.5;"/>
   </g>
   <g id="line2d_16">
    <path clip-path="url(#pe3b6abd1ed)" d="M 73.832727 170.892049 
L 81.632236 153.284161 
L 85.85697 144.314139 
L 89.106765 137.884773 
L 92.031581 132.541567 
L 94.631417 128.202257 
L 97.231253 124.29489 
L 99.50611 121.261467 
L 101.780966 118.612595 
L 103.730844 116.663846 
L 105.680721 115.023849 
L 107.630598 113.701942 
L 109.255495 112.848823 
L 110.880393 112.225234 
L 112.505291 111.833639 
L 114.130188 111.675587 
L 115.755086 111.751704 
L 117.379984 112.061687 
L 119.004881 112.604313 
L 120.629779 113.377434 
L 122.254676 114.377993 
L 124.204554 115.87325 
L 126.154431 117.68176 
L 128.104308 119.793227 
L 130.379165 122.623378 
L 132.654021 125.827527 
L 135.253857 129.915395 
L 137.853694 134.417873 
L 140.778509 139.921875 
L 144.028305 146.499237 
L 147.928059 154.891282 
L 153.452711 167.355755 
L 162.877117 188.677658 
L 167.101851 197.636249 
L 170.351646 204.053783 
L 173.276462 209.384247 
L 175.876298 213.710701 
L 178.476134 217.603909 
L 180.750991 220.623986 
L 183.025848 223.258726 
L 184.975725 225.19482 
L 186.925602 226.821737 
L 188.875479 228.130214 
L 190.500377 228.971929 
L 192.125274 229.58397 
L 193.750172 229.963917 
L 195.37507 230.110267 
L 196.999967 230.022443 
L 198.624865 229.70079 
L 200.249762 229.146581 
L 201.87466 228.362008 
L 203.499558 227.350174 
L 205.449435 225.841682 
L 207.399312 224.020331 
L 209.349189 221.89649 
L 211.624046 219.052587 
L 213.898903 215.835523 
L 216.498739 211.734049 
L 219.098575 207.219328 
L 222.023391 201.703335 
L 225.273186 195.115041 
L 229.17294 186.713432 
L 234.697592 174.242426 
L 244.121998 152.928894 
L 248.346732 143.981822 
L 251.596527 137.576184 
L 254.521343 132.258515 
L 257.121179 127.944959 
L 259.721016 124.065949 
L 261.995872 121.059248 
L 264.270729 118.438666 
L 266.220606 116.515246 
L 268.170483 114.901425 
L 270.12036 113.60639 
L 271.745258 112.776088 
L 273.370156 112.175602 
L 274.995053 111.807307 
L 276.619951 111.672659 
L 278.244848 111.772191 
L 279.869746 112.105509 
L 281.494644 112.671296 
L 283.119541 113.467313 
L 284.744439 114.490413 
L 286.694316 116.012125 
L 288.644193 117.846299 
L 290.59407 119.982493 
L 292.868927 122.84012 
L 295.143784 126.070067 
L 297.74362 130.185106 
L 300.343456 134.712025 
L 303.268272 140.239955 
L 306.843047 147.521715 
L 311.067781 156.691947 
L 317.242391 170.705818 
L 325.0419 188.32204 
L 329.266634 197.303404 
L 332.841409 204.361714 
L 335.766224 209.666536 
L 338.366061 213.967151 
L 340.965897 217.831926 
L 343.240753 220.82522 
L 345.51561 223.431619 
L 347.465487 225.342345 
L 349.415364 226.943055 
L 351.365242 228.224633 
L 352.990139 229.043516 
L 354.615037 229.632441 
L 356.239934 229.989081 
L 357.864832 230.112024 
L 359.48973 230.000786 
L 361.114627 229.655805 
L 362.739525 229.078446 
L 364.364423 228.270993 
L 365.98932 227.236637 
L 367.939197 225.701721 
L 369.889075 223.854742 
L 371.838952 221.706216 
L 374.113808 218.834893 
L 376.388665 215.592095 
L 378.988501 211.463532 
L 381.588337 206.924459 
L 384.513153 201.384647 
L 388.087928 194.091151 
L 392.312662 184.911283 
L 398.487273 170.892049 
L 398.487273 170.892049 
" style="fill:none;stroke:#0000ff;stroke-linecap:square;stroke-width:1.5;"/>
   </g>
   <g id="line2d_17">
    <path clip-path="url(#pe3b6abd1ed)" d="M 73.832727 91.931984 
L 81.632236 80.193392 
L 85.85697 74.213377 
L 89.431744 69.51656 
L 92.68154 65.616335 
L 95.606355 62.460053 
L 98.206192 59.970088 
L 100.806028 57.803519 
L 103.080885 56.190375 
L 105.355741 54.854166 
L 107.630598 53.805246 
L 109.580475 53.141052 
L 111.530352 52.697717 
L 113.480229 52.477766 
L 115.430106 52.48245 
L 117.379984 52.711743 
L 119.329861 53.164339 
L 121.279738 53.837662 
L 123.229615 54.727878 
L 125.504472 56.033762 
L 127.779328 57.617795 
L 130.054185 59.467704 
L 132.654021 61.888969 
L 135.253857 64.614215 
L 138.178673 68.009023 
L 141.428468 72.138231 
L 145.003243 77.03896 
L 149.552957 83.675053 
L 158.002424 96.515336 
L 163.852056 105.201351 
L 168.07679 111.077712 
L 171.651564 115.656942 
L 174.57638 119.069946 
L 177.501196 122.135503 
L 180.101032 124.536923 
L 182.375889 126.368292 
L 184.650745 127.932839 
L 186.925602 129.218443 
L 188.875479 130.090761 
L 190.825356 130.745819 
L 192.775233 131.179888 
L 194.725111 131.390496 
L 196.674988 131.376443 
L 198.624865 131.137811 
L 200.574742 130.675958 
L 202.524619 129.993512 
L 204.474496 129.094361 
L 206.749353 127.778355 
L 209.02421 126.184603 
L 211.299066 124.325452 
L 213.898903 121.8943 
L 216.498739 119.159984 
L 219.423554 115.756061 
L 222.67335 111.618215 
L 226.248124 106.709952 
L 230.797838 100.067465 
L 239.572285 86.732649 
L 245.421916 78.079623 
L 249.321671 72.677771 
L 252.896446 68.107907 
L 255.821261 64.703984 
L 258.746077 61.648659 
L 261.345913 59.257198 
L 263.62077 57.435126 
L 265.895627 55.880345 
L 268.170483 54.604901 
L 270.12036 53.741545 
L 272.070238 53.095629 
L 274.020115 52.67083 
L 275.969992 52.469568 
L 277.919869 52.492988 
L 279.869746 52.740957 
L 281.819623 53.212064 
L 283.7695 53.903624 
L 285.719378 54.811703 
L 287.994234 56.137816 
L 290.269091 57.741273 
L 292.543948 59.609647 
L 295.143784 62.050662 
L 297.74362 64.794022 
L 300.668436 68.207025 
L 303.918231 72.353468 
L 307.817985 77.731461 
L 312.367699 84.404932 
L 328.616675 108.645092 
L 332.19145 113.418729 
L 335.441245 117.404242 
L 338.366061 120.648719 
L 340.965897 123.225235 
L 343.565733 125.485121 
L 345.84059 127.184726 
L 348.115446 128.611183 
L 350.390303 129.753441 
L 352.34018 130.499549 
L 354.290057 131.026069 
L 356.239934 131.330005 
L 358.189812 131.409625 
L 360.139689 131.264476 
L 362.089566 130.895384 
L 364.039443 130.304452 
L 365.98932 129.495043 
L 367.939197 128.471765 
L 370.214054 127.015475 
L 372.488911 125.287349 
L 374.763767 123.300777 
L 377.363604 120.733777 
L 380.288419 117.498972 
L 383.213235 113.936834 
L 386.78801 109.205406 
L 391.012744 103.195501 
L 396.537396 94.90886 
L 398.487273 91.931984 
L 398.487273 91.931984 
" style="fill:none;stroke:#ff0000;stroke-linecap:square;stroke-width:1.5;"/>
   </g>
   <g id="patch_3">
    <path d="M 57.6 301.176 
L 57.6 40.608 
" style="fill:none;stroke:#000000;stroke-linecap:square;stroke-linejoin:miter;stroke-width:0.8;"/>
   </g>
   <g id="patch_4">
    <path d="M 414.72 301.176 
L 414.72 40.608 
" style="fill:none;stroke:#000000;stroke-linecap:square;stroke-linejoin:miter;stroke-width:0.8;"/>
   </g>
   <g id="patch_5">
    <path d="M 57.6 301.176 
L 414.72 301.176 
" style="fill:none;stroke:#000000;stroke-linecap:square;stroke-linejoin:miter;stroke-width:0.8;"/>
   </g>
   <g id="patch_6">
    <path d="M 57.6 40.608 
L 414.72 40.608 
" style="fill:none;stroke:#000000;stroke-linecap:square;stroke-linejoin:miter;stroke-width:0.8;"/>
   </g>
   <g id="legend_1">
    <g id="patch_7">
     <path d="M 64.6 296.176 
L 189.060937 296.176 
Q 191.060937 296.176 191.060937 294.176 
L 191.060937 251.141625 
Q 191.060937 249.141625 189.060937 249.141625 
L 64.6 249.141625 
Q 62.6 249.141625 62.6 251.141625 
L 62.6 294.176 
Q 62.6 296.176 64.6 296.176 
z
" style="fill:#ffffff;opacity:0.8;stroke:#cccccc;stroke-linejoin:miter;"/>
    </g>
    <g id="line2d_18">
     <path d="M 66.6 257.240063 
L 86.6 257.240063 
" style="fill:none;stroke:#008000;stroke-linecap:square;stroke-width:1.5;"/>
    </g>
    <g id="line2d_19"/>
    <g id="text_15">
     <!-- Ground Truth -->
     <defs>
      <path d="M 59.515625 10.40625 
L 59.515625 29.984375 
L 43.40625 29.984375 
L 43.40625 38.09375 
L 69.28125 38.09375 
L 69.28125 6.78125 
Q 63.578125 2.734375 56.6875 0.65625 
Q 49.8125 -1.421875 42 -1.421875 
Q 24.90625 -1.421875 15.25 8.5625 
Q 5.609375 18.5625 5.609375 36.375 
Q 5.609375 54.25 15.25 64.234375 
Q 24.90625 74.21875 42 74.21875 
Q 49.125 74.21875 55.546875 72.453125 
Q 61.96875 70.703125 67.390625 67.28125 
L 67.390625 56.78125 
Q 61.921875 61.421875 55.765625 63.765625 
Q 49.609375 66.109375 42.828125 66.109375 
Q 29.4375 66.109375 22.71875 58.640625 
Q 16.015625 51.171875 16.015625 36.375 
Q 16.015625 21.625 22.71875 14.15625 
Q 29.4375 6.6875 42.828125 6.6875 
Q 48.046875 6.6875 52.140625 7.59375 
Q 56.25 8.5 59.515625 10.40625 
z
" id="DejaVuSans-47"/>
      <path d="M 41.109375 46.296875 
Q 39.59375 47.171875 37.8125 47.578125 
Q 36.03125 48 33.890625 48 
Q 26.265625 48 22.1875 43.046875 
Q 18.109375 38.09375 18.109375 28.8125 
L 18.109375 0 
L 9.078125 0 
L 9.078125 54.6875 
L 18.109375 54.6875 
L 18.109375 46.1875 
Q 20.953125 51.171875 25.484375 53.578125 
Q 30.03125 56 36.53125 56 
Q 37.453125 56 38.578125 55.875 
Q 39.703125 55.765625 41.0625 55.515625 
z
" id="DejaVuSans-72"/>
      <path d="M 30.609375 48.390625 
Q 23.390625 48.390625 19.1875 42.75 
Q 14.984375 37.109375 14.984375 27.296875 
Q 14.984375 17.484375 19.15625 11.84375 
Q 23.34375 6.203125 30.609375 6.203125 
Q 37.796875 6.203125 41.984375 11.859375 
Q 46.1875 17.53125 46.1875 27.296875 
Q 46.1875 37.015625 41.984375 42.703125 
Q 37.796875 48.390625 30.609375 48.390625 
z
M 30.609375 56 
Q 42.328125 56 49.015625 48.375 
Q 55.71875 40.765625 55.71875 27.296875 
Q 55.71875 13.875 49.015625 6.21875 
Q 42.328125 -1.421875 30.609375 -1.421875 
Q 18.84375 -1.421875 12.171875 6.21875 
Q 5.515625 13.875 5.515625 27.296875 
Q 5.515625 40.765625 12.171875 48.375 
Q 18.84375 56 30.609375 56 
z
" id="DejaVuSans-6f"/>
      <path d="M 8.5 21.578125 
L 8.5 54.6875 
L 17.484375 54.6875 
L 17.484375 21.921875 
Q 17.484375 14.15625 20.5 10.265625 
Q 23.53125 6.390625 29.59375 6.390625 
Q 36.859375 6.390625 41.078125 11.03125 
Q 45.3125 15.671875 45.3125 23.6875 
L 45.3125 54.6875 
L 54.296875 54.6875 
L 54.296875 0 
L 45.3125 0 
L 45.3125 8.40625 
Q 42.046875 3.421875 37.71875 1 
Q 33.40625 -1.421875 27.6875 -1.421875 
Q 18.265625 -1.421875 13.375 4.4375 
Q 8.5 10.296875 8.5 21.578125 
z
M 31.109375 56 
z
" id="DejaVuSans-75"/>
      <path d="M 54.890625 33.015625 
L 54.890625 0 
L 45.90625 0 
L 45.90625 32.71875 
Q 45.90625 40.484375 42.875 44.328125 
Q 39.84375 48.1875 33.796875 48.1875 
Q 26.515625 48.1875 22.3125 43.546875 
Q 18.109375 38.921875 18.109375 30.90625 
L 18.109375 0 
L 9.078125 0 
L 9.078125 54.6875 
L 18.109375 54.6875 
L 18.109375 46.1875 
Q 21.34375 51.125 25.703125 53.5625 
Q 30.078125 56 35.796875 56 
Q 45.21875 56 50.046875 50.171875 
Q 54.890625 44.34375 54.890625 33.015625 
z
" id="DejaVuSans-6e"/>
      <path d="M 45.40625 46.390625 
L 45.40625 75.984375 
L 54.390625 75.984375 
L 54.390625 0 
L 45.40625 0 
L 45.40625 8.203125 
Q 42.578125 3.328125 38.25 0.953125 
Q 33.9375 -1.421875 27.875 -1.421875 
Q 17.96875 -1.421875 11.734375 6.484375 
Q 5.515625 14.40625 5.515625 27.296875 
Q 5.515625 40.1875 11.734375 48.09375 
Q 17.96875 56 27.875 56 
Q 33.9375 56 38.25 53.625 
Q 42.578125 51.265625 45.40625 46.390625 
z
M 14.796875 27.296875 
Q 14.796875 17.390625 18.875 11.75 
Q 22.953125 6.109375 30.078125 6.109375 
Q 37.203125 6.109375 41.296875 11.75 
Q 45.40625 17.390625 45.40625 27.296875 
Q 45.40625 37.203125 41.296875 42.84375 
Q 37.203125 48.484375 30.078125 48.484375 
Q 22.953125 48.484375 18.875 42.84375 
Q 14.796875 37.203125 14.796875 27.296875 
z
" id="DejaVuSans-64"/>
      <path id="DejaVuSans-20"/>
      <path d="M -0.296875 72.90625 
L 61.375 72.90625 
L 61.375 64.59375 
L 35.5 64.59375 
L 35.5 0 
L 25.59375 0 
L 25.59375 64.59375 
L -0.296875 64.59375 
z
" id="DejaVuSans-54"/>
      <path d="M 18.3125 70.21875 
L 18.3125 54.6875 
L 36.8125 54.6875 
L 36.8125 47.703125 
L 18.3125 47.703125 
L 18.3125 18.015625 
Q 18.3125 11.328125 20.140625 9.421875 
Q 21.96875 7.515625 27.59375 7.515625 
L 36.8125 7.515625 
L 36.8125 0 
L 27.59375 0 
Q 17.1875 0 13.234375 3.875 
Q 9.28125 7.765625 9.28125 18.015625 
L 9.28125 47.703125 
L 2.6875 47.703125 
L 2.6875 54.6875 
L 9.28125 54.6875 
L 9.28125 70.21875 
z
" id="DejaVuSans-74"/>
      <path d="M 54.890625 33.015625 
L 54.890625 0 
L 45.90625 0 
L 45.90625 32.71875 
Q 45.90625 40.484375 42.875 44.328125 
Q 39.84375 48.1875 33.796875 48.1875 
Q 26.515625 48.1875 22.3125 43.546875 
Q 18.109375 38.921875 18.109375 30.90625 
L 18.109375 0 
L 9.078125 0 
L 9.078125 75.984375 
L 18.109375 75.984375 
L 18.109375 46.1875 
Q 21.34375 51.125 25.703125 53.5625 
Q 30.078125 56 35.796875 56 
Q 45.21875 56 50.046875 50.171875 
Q 54.890625 44.34375 54.890625 33.015625 
z
" id="DejaVuSans-68"/>
     </defs>
     <g transform="translate(94.6 260.740063)scale(0.1 -0.1)">
      <use xlink:href="#DejaVuSans-47"/>
      <use x="77.490234" xlink:href="#DejaVuSans-72"/>
      <use x="118.572266" xlink:href="#DejaVuSans-6f"/>
      <use x="179.753906" xlink:href="#DejaVuSans-75"/>
      <use x="243.132812" xlink:href="#DejaVuSans-6e"/>
      <use x="306.511719" xlink:href="#DejaVuSans-64"/>
      <use x="369.988281" xlink:href="#DejaVuSans-20"/>
      <use x="401.775391" xlink:href="#DejaVuSans-54"/>
      <use x="462.640625" xlink:href="#DejaVuSans-72"/>
      <use x="503.753906" xlink:href="#DejaVuSans-75"/>
      <use x="567.132812" xlink:href="#DejaVuSans-74"/>
      <use x="606.341797" xlink:href="#DejaVuSans-68"/>
     </g>
    </g>
    <g id="line2d_20">
     <path d="M 66.6 271.918188 
L 86.6 271.918188 
" style="fill:none;stroke:#0000ff;stroke-linecap:square;stroke-width:1.5;"/>
    </g>
    <g id="line2d_21"/>
    <g id="text_16">
     <!-- Smaller Amplitude -->
     <defs>
      <path d="M 53.515625 70.515625 
L 53.515625 60.890625 
Q 47.90625 63.578125 42.921875 64.890625 
Q 37.9375 66.21875 33.296875 66.21875 
Q 25.25 66.21875 20.875 63.09375 
Q 16.5 59.96875 16.5 54.203125 
Q 16.5 49.359375 19.40625 46.890625 
Q 22.3125 44.4375 30.421875 42.921875 
L 36.375 41.703125 
Q 47.40625 39.59375 52.65625 34.296875 
Q 57.90625 29 57.90625 20.125 
Q 57.90625 9.515625 50.796875 4.046875 
Q 43.703125 -1.421875 29.984375 -1.421875 
Q 24.8125 -1.421875 18.96875 -0.25 
Q 13.140625 0.921875 6.890625 3.21875 
L 6.890625 13.375 
Q 12.890625 10.015625 18.65625 8.296875 
Q 24.421875 6.59375 29.984375 6.59375 
Q 38.421875 6.59375 43.015625 9.90625 
Q 47.609375 13.234375 47.609375 19.390625 
Q 47.609375 24.75 44.3125 27.78125 
Q 41.015625 30.8125 33.5 32.328125 
L 27.484375 33.5 
Q 16.453125 35.6875 11.515625 40.375 
Q 6.59375 45.0625 6.59375 53.421875 
Q 6.59375 63.09375 13.40625 68.65625 
Q 20.21875 74.21875 32.171875 74.21875 
Q 37.3125 74.21875 42.625 73.28125 
Q 47.953125 72.359375 53.515625 70.515625 
z
" id="DejaVuSans-53"/>
      <path d="M 52 44.1875 
Q 55.375 50.25 60.0625 53.125 
Q 64.75 56 71.09375 56 
Q 79.640625 56 84.28125 50.015625 
Q 88.921875 44.046875 88.921875 33.015625 
L 88.921875 0 
L 79.890625 0 
L 79.890625 32.71875 
Q 79.890625 40.578125 77.09375 44.375 
Q 74.3125 48.1875 68.609375 48.1875 
Q 61.625 48.1875 57.5625 43.546875 
Q 53.515625 38.921875 53.515625 30.90625 
L 53.515625 0 
L 44.484375 0 
L 44.484375 32.71875 
Q 44.484375 40.625 41.703125 44.40625 
Q 38.921875 48.1875 33.109375 48.1875 
Q 26.21875 48.1875 22.15625 43.53125 
Q 18.109375 38.875 18.109375 30.90625 
L 18.109375 0 
L 9.078125 0 
L 9.078125 54.6875 
L 18.109375 54.6875 
L 18.109375 46.1875 
Q 21.1875 51.21875 25.484375 53.609375 
Q 29.78125 56 35.6875 56 
Q 41.65625 56 45.828125 52.96875 
Q 50 49.953125 52 44.1875 
z
" id="DejaVuSans-6d"/>
      <path d="M 34.28125 27.484375 
Q 23.390625 27.484375 19.1875 25 
Q 14.984375 22.515625 14.984375 16.5 
Q 14.984375 11.71875 18.140625 8.90625 
Q 21.296875 6.109375 26.703125 6.109375 
Q 34.1875 6.109375 38.703125 11.40625 
Q 43.21875 16.703125 43.21875 25.484375 
L 43.21875 27.484375 
z
M 52.203125 31.203125 
L 52.203125 0 
L 43.21875 0 
L 43.21875 8.296875 
Q 40.140625 3.328125 35.546875 0.953125 
Q 30.953125 -1.421875 24.3125 -1.421875 
Q 15.921875 -1.421875 10.953125 3.296875 
Q 6 8.015625 6 15.921875 
Q 6 25.140625 12.171875 29.828125 
Q 18.359375 34.515625 30.609375 34.515625 
L 43.21875 34.515625 
L 43.21875 35.40625 
Q 43.21875 41.609375 39.140625 45 
Q 35.0625 48.390625 27.6875 48.390625 
Q 23 48.390625 18.546875 47.265625 
Q 14.109375 46.140625 10.015625 43.890625 
L 10.015625 52.203125 
Q 14.9375 54.109375 19.578125 55.046875 
Q 24.21875 56 28.609375 56 
Q 40.484375 56 46.34375 49.84375 
Q 52.203125 43.703125 52.203125 31.203125 
z
" id="DejaVuSans-61"/>
      <path d="M 9.421875 75.984375 
L 18.40625 75.984375 
L 18.40625 0 
L 9.421875 0 
z
" id="DejaVuSans-6c"/>
      <path d="M 56.203125 29.59375 
L 56.203125 25.203125 
L 14.890625 25.203125 
Q 15.484375 15.921875 20.484375 11.0625 
Q 25.484375 6.203125 34.421875 6.203125 
Q 39.59375 6.203125 44.453125 7.46875 
Q 49.3125 8.734375 54.109375 11.28125 
L 54.109375 2.78125 
Q 49.265625 0.734375 44.1875 -0.34375 
Q 39.109375 -1.421875 33.890625 -1.421875 
Q 20.796875 -1.421875 13.15625 6.1875 
Q 5.515625 13.8125 5.515625 26.8125 
Q 5.515625 40.234375 12.765625 48.109375 
Q 20.015625 56 32.328125 56 
Q 43.359375 56 49.78125 48.890625 
Q 56.203125 41.796875 56.203125 29.59375 
z
M 47.21875 32.234375 
Q 47.125 39.59375 43.09375 43.984375 
Q 39.0625 48.390625 32.421875 48.390625 
Q 24.90625 48.390625 20.390625 44.140625 
Q 15.875 39.890625 15.1875 32.171875 
z
" id="DejaVuSans-65"/>
      <path d="M 34.1875 63.1875 
L 20.796875 26.90625 
L 47.609375 26.90625 
z
M 28.609375 72.90625 
L 39.796875 72.90625 
L 67.578125 0 
L 57.328125 0 
L 50.6875 18.703125 
L 17.828125 18.703125 
L 11.1875 0 
L 0.78125 0 
z
" id="DejaVuSans-41"/>
      <path d="M 18.109375 8.203125 
L 18.109375 -20.796875 
L 9.078125 -20.796875 
L 9.078125 54.6875 
L 18.109375 54.6875 
L 18.109375 46.390625 
Q 20.953125 51.265625 25.265625 53.625 
Q 29.59375 56 35.59375 56 
Q 45.5625 56 51.78125 48.09375 
Q 58.015625 40.1875 58.015625 27.296875 
Q 58.015625 14.40625 51.78125 6.484375 
Q 45.5625 -1.421875 35.59375 -1.421875 
Q 29.59375 -1.421875 25.265625 0.953125 
Q 20.953125 3.328125 18.109375 8.203125 
z
M 48.6875 27.296875 
Q 48.6875 37.203125 44.609375 42.84375 
Q 40.53125 48.484375 33.40625 48.484375 
Q 26.265625 48.484375 22.1875 42.84375 
Q 18.109375 37.203125 18.109375 27.296875 
Q 18.109375 17.390625 22.1875 11.75 
Q 26.265625 6.109375 33.40625 6.109375 
Q 40.53125 6.109375 44.609375 11.75 
Q 48.6875 17.390625 48.6875 27.296875 
z
" id="DejaVuSans-70"/>
      <path d="M 9.421875 54.6875 
L 18.40625 54.6875 
L 18.40625 0 
L 9.421875 0 
z
M 9.421875 75.984375 
L 18.40625 75.984375 
L 18.40625 64.59375 
L 9.421875 64.59375 
z
" id="DejaVuSans-69"/>
     </defs>
     <g transform="translate(94.6 275.418188)scale(0.1 -0.1)">
      <use xlink:href="#DejaVuSans-53"/>
      <use x="63.476562" xlink:href="#DejaVuSans-6d"/>
      <use x="160.888672" xlink:href="#DejaVuSans-61"/>
      <use x="222.167969" xlink:href="#DejaVuSans-6c"/>
      <use x="249.951172" xlink:href="#DejaVuSans-6c"/>
      <use x="277.734375" xlink:href="#DejaVuSans-65"/>
      <use x="339.257812" xlink:href="#DejaVuSans-72"/>
      <use x="380.371094" xlink:href="#DejaVuSans-20"/>
      <use x="412.158203" xlink:href="#DejaVuSans-41"/>
      <use x="480.566406" xlink:href="#DejaVuSans-6d"/>
      <use x="577.978516" xlink:href="#DejaVuSans-70"/>
      <use x="641.455078" xlink:href="#DejaVuSans-6c"/>
      <use x="669.238281" xlink:href="#DejaVuSans-69"/>
      <use x="697.021484" xlink:href="#DejaVuSans-74"/>
      <use x="736.230469" xlink:href="#DejaVuSans-75"/>
      <use x="799.609375" xlink:href="#DejaVuSans-64"/>
      <use x="863.085938" xlink:href="#DejaVuSans-65"/>
     </g>
    </g>
    <g id="line2d_22">
     <path d="M 66.6 286.596313 
L 86.6 286.596313 
" style="fill:none;stroke:#ff0000;stroke-linecap:square;stroke-width:1.5;"/>
    </g>
    <g id="line2d_23"/>
    <g id="text_17">
     <!-- Shifted Vertical -->
     <defs>
      <path d="M 37.109375 75.984375 
L 37.109375 68.5 
L 28.515625 68.5 
Q 23.6875 68.5 21.796875 66.546875 
Q 19.921875 64.59375 19.921875 59.515625 
L 19.921875 54.6875 
L 34.71875 54.6875 
L 34.71875 47.703125 
L 19.921875 47.703125 
L 19.921875 0 
L 10.890625 0 
L 10.890625 47.703125 
L 2.296875 47.703125 
L 2.296875 54.6875 
L 10.890625 54.6875 
L 10.890625 58.5 
Q 10.890625 67.625 15.140625 71.796875 
Q 19.390625 75.984375 28.609375 75.984375 
z
" id="DejaVuSans-66"/>
      <path d="M 28.609375 0 
L 0.78125 72.90625 
L 11.078125 72.90625 
L 34.1875 11.53125 
L 57.328125 72.90625 
L 67.578125 72.90625 
L 39.796875 0 
z
" id="DejaVuSans-56"/>
      <path d="M 48.78125 52.59375 
L 48.78125 44.1875 
Q 44.96875 46.296875 41.140625 47.34375 
Q 37.3125 48.390625 33.40625 48.390625 
Q 24.65625 48.390625 19.8125 42.84375 
Q 14.984375 37.3125 14.984375 27.296875 
Q 14.984375 17.28125 19.8125 11.734375 
Q 24.65625 6.203125 33.40625 6.203125 
Q 37.3125 6.203125 41.140625 7.25 
Q 44.96875 8.296875 48.78125 10.40625 
L 48.78125 2.09375 
Q 45.015625 0.34375 40.984375 -0.53125 
Q 36.96875 -1.421875 32.421875 -1.421875 
Q 20.0625 -1.421875 12.78125 6.34375 
Q 5.515625 14.109375 5.515625 27.296875 
Q 5.515625 40.671875 12.859375 48.328125 
Q 20.21875 56 33.015625 56 
Q 37.15625 56 41.109375 55.140625 
Q 45.0625 54.296875 48.78125 52.59375 
z
" id="DejaVuSans-63"/>
     </defs>
     <g transform="translate(94.6 290.096313)scale(0.1 -0.1)">
      <use xlink:href="#DejaVuSans-53"/>
      <use x="63.476562" xlink:href="#DejaVuSans-68"/>
      <use x="126.855469" xlink:href="#DejaVuSans-69"/>
      <use x="154.638672" xlink:href="#DejaVuSans-66"/>
      <use x="189.828125" xlink:href="#DejaVuSans-74"/>
      <use x="229.037109" xlink:href="#DejaVuSans-65"/>
      <use x="290.560547" xlink:href="#DejaVuSans-64"/>
      <use x="354.037109" xlink:href="#DejaVuSans-20"/>
      <use x="385.824219" xlink:href="#DejaVuSans-56"/>
      <use x="454.123047" xlink:href="#DejaVuSans-65"/>
      <use x="515.646484" xlink:href="#DejaVuSans-72"/>
      <use x="556.759766" xlink:href="#DejaVuSans-74"/>
      <use x="595.96875" xlink:href="#DejaVuSans-69"/>
      <use x="623.751953" xlink:href="#DejaVuSans-63"/>
      <use x="678.732422" xlink:href="#DejaVuSans-61"/>
      <use x="740.011719" xlink:href="#DejaVuSans-6c"/>
     </g>
    </g>
   </g>
  </g>
 </g>
 <defs>
  <clipPath id="pe3b6abd1ed">
   <rect height="260.568" width="357.12" x="57.6" y="40.608"/>
  </clipPath>
 </defs>
</svg>
