<?xml version="1.0" encoding="UTF-8"?>
<svg xmlns="http://www.w3.org/2000/svg" xmlns:xlink="http://www.w3.org/1999/xlink" width="353pt" height="212pt" viewBox="0 0 353 212" version="1.1">
<g id="surface7">
<path style="fill:none;stroke-width:1.6;stroke-linecap:square;stroke-linejoin:miter;stroke:rgb(36.84082%,50.67749%,70.979309%);stroke-opacity:1;stroke-miterlimit:3.25;" d="M 81.179688 223.78125 L 81.390625 222.875 L 81.601563 221.964844 L 82.027344 220.121094 L 82.871094 216.359375 L 84.5625 208.574219 L 87.945313 192.285156 L 88.058594 191.726563 L 88.175781 191.164063 L 88.402344 190.042969 L 88.863281 187.800781 L 89.777344 183.324219 L 91.613281 174.492188 L 91.839844 173.40625 L 92.070313 172.324219 L 92.527344 170.179688 L 93.445313 165.972656 L 95.277344 157.941406 L 95.386719 157.492188 L 95.492188 157.046875 L 95.707031 156.15625 L 96.132813 154.410156 L 96.992188 151.039063 L 97.097656 150.628906 L 97.203125 150.222656 L 97.417969 149.417969 L 97.847656 147.84375 L 98.703125 144.835938 L 98.808594 144.472656 L 98.917969 144.117188 L 99.128906 143.40625 L 99.558594 142.03125 L 100.414063 139.4375 L 100.523438 139.128906 L 100.628906 138.824219 L 100.84375 138.222656 L 101.269531 137.066406 L 102.125 134.921875 L 102.335938 134.429688 L 102.546875 133.957031 L 102.964844 133.046875 L 103.070313 132.828125 L 103.175781 132.613281 L 103.386719 132.195313 L 103.804688 131.402344 L 103.910156 131.210938 L 104.015625 131.027344 L 104.222656 130.667969 L 104.644531 129.988281 L 104.75 129.828125 L 104.855469 129.671875 L 105.0625 129.367188 L 105.484375 128.804688 L 105.589844 128.671875 L 105.691406 128.542969 L 105.902344 128.296875 L 106.007813 128.179688 L 106.113281 128.066406 L 106.324219 127.847656 L 106.425781 127.746094 L 106.53125 127.644531 L 106.742188 127.457031 L 106.847656 127.367188 L 106.953125 127.28125 L 107.160156 127.121094 L 107.265625 127.042969 L 107.371094 126.972656 L 107.582031 126.835938 L 107.6875 126.777344 L 107.789063 126.71875 L 108 126.609375 L 108.210938 126.515625 L 108.316406 126.472656 L 108.421875 126.433594 L 108.523438 126.398438 L 108.628906 126.367188 L 108.839844 126.3125 L 109.066406 126.265625 L 109.179688 126.25 L 109.296875 126.238281 L 109.410156 126.226563 L 109.636719 126.21875 L 109.75 126.21875 L 109.976563 126.234375 L 110.089844 126.246094 L 110.207031 126.261719 L 110.320313 126.277344 L 110.546875 126.324219 L 110.773438 126.386719 L 110.886719 126.421875 L 111.003906 126.460938 L 111.117188 126.5 L 111.34375 126.59375 L 111.570313 126.699219 L 111.796875 126.816406 L 112.027344 126.945313 L 112.480469 127.238281 L 112.707031 127.402344 L 112.9375 127.574219 L 113.390625 127.953125 L 113.503906 128.054688 L 113.621094 128.15625 L 113.847656 128.367188 L 114.300781 128.820313 L 114.414063 128.9375 L 114.53125 129.058594 L 114.757813 129.304688 L 115.210938 129.820313 L 116.121094 130.929688 L 116.230469 131.0625 L 116.335938 131.199219 L 116.546875 131.476563 L 116.972656 132.039063 L 117.820313 133.207031 L 119.519531 135.625 L 119.628906 135.777344 L 119.734375 135.925781 L 119.945313 136.230469 L 120.371094 136.832031 L 121.21875 138.015625 L 122.917969 140.234375 L 123.035156 140.371094 L 123.148438 140.511719 L 123.378906 140.785156 L 123.839844 141.308594 L 123.953125 141.433594 L 124.070313 141.558594 L 124.300781 141.800781 L 124.761719 142.265625 L 124.875 142.375 L 124.992188 142.484375 L 125.222656 142.695313 L 125.679688 143.089844 L 125.796875 143.179688 L 125.910156 143.269531 L 126.140625 143.445313 L 126.601563 143.757813 L 126.71875 143.832031 L 126.832031 143.902344 L 127.0625 144.03125 L 127.175781 144.09375 L 127.292969 144.152344 L 127.523438 144.261719 L 127.636719 144.308594 L 127.753906 144.355469 L 127.867188 144.402344 L 127.984375 144.441406 L 128.097656 144.480469 L 128.214844 144.515625 L 128.328125 144.550781 L 128.441406 144.578125 L 128.558594 144.605469 L 128.671875 144.628906 L 128.789063 144.648438 L 128.902344 144.667969 L 129.019531 144.679688 L 129.132813 144.691406 L 129.25 144.699219 L 129.363281 144.703125 L 129.480469 144.707031 L 129.59375 144.703125 L 129.710938 144.699219 L 129.824219 144.691406 L 129.9375 144.679688 L 130.054688 144.667969 L 130.167969 144.648438 L 130.285156 144.628906 L 130.398438 144.605469 L 130.511719 144.578125 L 130.738281 144.515625 L 130.847656 144.480469 L 130.960938 144.441406 L 131.1875 144.351563 L 131.300781 144.304688 L 131.414063 144.25 L 131.640625 144.136719 L 131.867188 144.011719 L 132.09375 143.871094 L 132.207031 143.796875 L 132.320313 143.71875 L 132.542969 143.554688 L 132.65625 143.46875 L 132.769531 143.378906 L 132.996094 143.1875 L 133.109375 143.089844 L 133.222656 142.984375 L 133.449219 142.769531 L 133.898438 142.300781 L 134.011719 142.175781 L 134.125 142.046875 L 134.351563 141.785156 L 134.804688 141.214844 L 134.917969 141.066406 L 135.03125 140.914063 L 135.257813 140.601563 L 135.707031 139.941406 L 135.820313 139.765625 L 135.933594 139.59375 L 136.160156 139.234375 L 136.613281 138.480469 L 137.515625 136.851563 L 137.726563 136.445313 L 137.9375 136.035156 L 138.359375 135.183594 L 139.203125 133.394531 L 140.886719 129.492188 L 144.261719 120.84375 L 144.375 120.542969 L 144.488281 120.238281 L 144.71875 119.632813 L 145.175781 118.421875 L 146.089844 116.007813 L 147.917969 111.3125 L 148.03125 111.027344 L 148.148438 110.742188 L 148.375 110.179688 L 148.832031 109.074219 L 149.746094 106.9375 L 151.574219 103.0625 L 151.683594 102.851563 L 151.789063 102.648438 L 152.003906 102.246094 L 152.429688 101.464844 L 152.640625 101.089844 L 152.855469 100.726563 L 153.28125 100.027344 L 153.390625 99.859375 L 153.496094 99.691406 L 153.710938 99.367188 L 154.136719 98.753906 L 154.347656 98.464844 L 154.5625 98.183594 L 154.988281 97.660156 L 155.097656 97.539063 L 155.203125 97.417969 L 155.417969 97.183594 L 155.628906 96.964844 L 155.84375 96.757813 L 155.949219 96.65625 L 156.054688 96.558594 L 156.269531 96.375 L 156.695313 96.046875 L 156.804688 95.972656 L 156.910156 95.898438 L 157.125 95.765625 L 157.230469 95.703125 L 157.335938 95.644531 L 157.550781 95.535156 L 157.65625 95.484375 L 157.761719 95.441406 L 157.871094 95.398438 L 157.976563 95.355469 L 158.082031 95.320313 L 158.191406 95.285156 L 158.402344 95.230469 L 158.613281 95.183594 L 158.71875 95.167969 L 158.820313 95.152344 L 158.925781 95.144531 L 159.03125 95.132813 L 159.136719 95.128906 L 159.34375 95.128906 L 159.449219 95.132813 L 159.554688 95.140625 L 159.660156 95.152344 L 159.761719 95.164063 L 159.867188 95.179688 L 159.972656 95.199219 L 160.078125 95.222656 L 160.179688 95.25 L 160.285156 95.277344 L 160.390625 95.308594 L 160.496094 95.34375 L 160.601563 95.382813 L 160.703125 95.421875 L 161.019531 95.5625 L 161.121094 95.617188 L 161.332031 95.730469 L 161.542969 95.855469 L 161.75 95.996094 L 161.855469 96.066406 L 161.960938 96.144531 L 162.167969 96.304688 L 162.585938 96.660156 L 162.796875 96.855469 L 163.003906 97.0625 L 163.425781 97.503906 L 163.527344 97.625 L 163.632813 97.742188 L 163.84375 97.992188 L 164.261719 98.519531 L 165.097656 99.691406 L 165.210938 99.859375 L 165.550781 100.386719 L 166.003906 101.125 L 166.914063 102.71875 L 168.730469 106.289063 L 168.957031 106.765625 L 169.183594 107.25 L 169.636719 108.226563 L 170.542969 110.238281 L 172.359375 114.386719 L 172.464844 114.632813 L 172.570313 114.875 L 172.785156 115.363281 L 173.207031 116.335938 L 174.054688 118.269531 L 175.75 122 L 175.855469 122.226563 L 176.171875 122.894531 L 176.597656 123.765625 L 177.441406 125.4375 L 177.550781 125.640625 L 177.65625 125.839844 L 177.867188 126.234375 L 178.289063 127.003906 L 179.136719 128.445313 L 179.253906 128.628906 L 179.367188 128.8125 L 179.597656 129.167969 L 180.054688 129.847656 L 180.171875 130.011719 L 180.285156 130.171875 L 180.515625 130.488281 L 180.972656 131.078125 L 181.089844 131.21875 L 181.203125 131.355469 L 181.433594 131.617188 L 181.890625 132.113281 L 182.007813 132.226563 L 182.121094 132.339844 L 182.351563 132.550781 L 182.808594 132.941406 L 182.925781 133.03125 L 183.039063 133.117188 L 183.269531 133.277344 L 183.382813 133.351563 L 183.5 133.421875 L 183.726563 133.554688 L 183.84375 133.617188 L 183.957031 133.675781 L 184.074219 133.730469 L 184.1875 133.78125 L 184.300781 133.828125 L 184.417969 133.871094 L 184.53125 133.914063 L 184.648438 133.949219 L 184.761719 133.984375 L 184.875 134.011719 L 184.992188 134.039063 L 185.105469 134.0625 L 185.21875 134.078125 L 185.335938 134.09375 L 185.449219 134.105469 L 185.566406 134.117188 L 185.679688 134.121094 L 185.792969 134.121094 L 185.910156 134.117188 L 186.023438 134.113281 L 186.140625 134.101563 L 186.253906 134.089844 L 186.367188 134.074219 L 186.484375 134.054688 L 186.597656 134.03125 L 186.707031 134.003906 L 186.820313 133.972656 L 187.046875 133.902344 L 187.160156 133.859375 L 187.382813 133.769531 L 187.496094 133.71875 L 187.609375 133.664063 L 187.835938 133.546875 L 188.0625 133.414063 L 188.285156 133.269531 L 188.398438 133.191406 L 188.511719 133.109375 L 188.738281 132.9375 L 188.847656 132.847656 L 188.960938 132.753906 L 189.1875 132.554688 L 189.300781 132.453125 L 189.414063 132.34375 L 189.636719 132.121094 L 190.089844 131.636719 L 190.203125 131.507813 L 190.3125 131.378906 L 190.539063 131.105469 L 190.992188 130.527344 L 191.890625 129.230469 L 192.003906 129.058594 L 192.34375 128.519531 L 192.792969 127.769531 L 193.695313 126.152344 L 193.90625 125.753906 L 194.113281 125.351563 L 194.535156 124.523438 L 195.375 122.792969 L 197.058594 119.089844 L 197.164063 118.847656 L 197.269531 118.609375 L 197.476563 118.125 L 197.898438 117.152344 L 198.738281 115.183594 L 200.421875 111.226563 L 200.535156 110.957031 L 200.875 110.160156 L 201.332031 109.109375 L 202.242188 107.042969 L 202.359375 106.789063 L 202.699219 106.039063 L 203.15625 105.054688 L 204.066406 103.164063 L 204.183594 102.933594 L 204.296875 102.707031 L 204.523438 102.257813 L 204.980469 101.386719 L 205.890625 99.753906 L 206.003906 99.558594 L 206.121094 99.367188 L 206.347656 98.992188 L 206.804688 98.273438 L 207.714844 96.964844 L 207.820313 96.824219 L 207.929688 96.6875 L 208.140625 96.417969 L 208.566406 95.914063 L 208.777344 95.679688 L 208.992188 95.453125 L 209.417969 95.039063 L 209.523438 94.941406 L 209.628906 94.847656 L 209.84375 94.667969 L 209.949219 94.582031 L 210.054688 94.5 L 210.269531 94.34375 L 210.375 94.269531 L 210.480469 94.199219 L 210.695313 94.066406 L 210.800781 94.003906 L 210.90625 93.945313 L 211.121094 93.839844 L 211.226563 93.789063 L 211.332031 93.742188 L 211.4375 93.699219 L 211.546875 93.65625 L 211.757813 93.585938 L 211.863281 93.554688 L 211.96875 93.527344 L 212.078125 93.5 L 212.289063 93.460938 L 212.394531 93.445313 L 212.503906 93.433594 L 212.609375 93.421875 L 212.714844 93.414063 L 212.820313 93.410156 L 212.929688 93.410156 L 213.035156 93.414063 L 213.246094 93.429688 L 213.351563 93.441406 L 213.460938 93.457031 L 213.566406 93.472656 L 213.777344 93.519531 L 213.886719 93.546875 L 213.992188 93.578125 L 214.203125 93.648438 L 214.3125 93.6875 L 214.523438 93.777344 L 214.640625 93.828125 L 214.753906 93.886719 L 214.984375 94.011719 L 215.101563 94.078125 L 215.214844 94.148438 L 215.445313 94.300781 L 215.5625 94.382813 L 215.675781 94.464844 L 215.90625 94.644531 L 216.367188 95.046875 L 216.484375 95.15625 L 216.597656 95.265625 L 216.828125 95.5 L 217.289063 96.007813 L 217.40625 96.140625 L 217.519531 96.277344 L 217.75 96.5625 L 218.210938 97.171875 L 218.328125 97.328125 L 218.441406 97.492188 L 218.671875 97.824219 L 219.132813 98.523438 L 220.058594 100.050781 L 220.171875 100.253906 L 220.289063 100.457031 L 220.519531 100.875 L 220.980469 101.734375 L 221.902344 103.554688 L 222.015625 103.785156 L 222.128906 104.019531 L 222.355469 104.492188 L 222.808594 105.457031 L 223.710938 107.449219 L 225.523438 111.621094 L 225.75 112.152344 L 225.976563 112.6875 L 226.429688 113.753906 L 227.332031 115.886719 L 229.144531 120.0625 L 229.566406 121 L 229.988281 121.921875 L 230.835938 123.707031 L 231.046875 124.136719 L 231.257813 124.5625 L 231.679688 125.394531 L 232.523438 126.972656 L 232.734375 127.347656 L 232.945313 127.710938 L 233.367188 128.421875 L 233.472656 128.59375 L 233.578125 128.761719 L 233.789063 129.09375 L 234.210938 129.730469 L 234.316406 129.882813 L 234.425781 130.035156 L 234.636719 130.328125 L 235.058594 130.886719 L 235.164063 131.019531 L 235.269531 131.148438 L 235.480469 131.402344 L 235.902344 131.875 L 236.015625 131.996094 L 236.132813 132.117188 L 236.359375 132.34375 L 236.472656 132.449219 L 236.589844 132.554688 L 236.816406 132.753906 L 236.933594 132.847656 L 237.046875 132.941406 L 237.277344 133.113281 L 237.390625 133.195313 L 237.503906 133.273438 L 237.734375 133.417969 L 237.960938 133.550781 L 238.078125 133.609375 L 238.191406 133.667969 L 238.304688 133.722656 L 238.421875 133.769531 L 238.648438 133.859375 L 238.765625 133.898438 L 238.992188 133.96875 L 239.105469 133.996094 L 239.222656 134.019531 L 239.335938 134.042969 L 239.449219 134.0625 L 239.566406 134.074219 L 239.679688 134.085938 L 239.792969 134.09375 L 239.910156 134.097656 L 240.023438 134.097656 L 240.136719 134.09375 L 240.253906 134.085938 L 240.480469 134.0625 L 240.59375 134.042969 L 240.710938 134.023438 L 240.9375 133.96875 L 241.054688 133.9375 L 241.28125 133.859375 L 241.398438 133.816406 L 241.511719 133.773438 L 241.625 133.722656 L 241.855469 133.613281 L 242.082031 133.488281 L 242.3125 133.347656 L 242.425781 133.273438 L 242.542969 133.195313 L 242.769531 133.03125 L 243.226563 132.660156 L 243.335938 132.5625 L 243.441406 132.464844 L 243.65625 132.261719 L 244.082031 131.820313 L 244.191406 131.703125 L 244.296875 131.585938 L 244.511719 131.335938 L 244.9375 130.808594 L 245.046875 130.667969 L 245.152344 130.527344 L 245.367188 130.234375 L 245.792969 129.625 L 246.648438 128.285156 L 246.753906 128.109375 L 246.863281 127.929688 L 247.074219 127.5625 L 247.503906 126.804688 L 248.359375 125.195313 L 250.070313 121.65625 L 250.171875 121.429688 L 250.488281 120.738281 L 250.90625 119.800781 L 251.746094 117.886719 L 253.421875 113.960938 L 253.527344 113.714844 L 253.632813 113.464844 L 253.839844 112.972656 L 254.261719 111.984375 L 255.097656 110.027344 L 256.773438 106.238281 L 256.886719 105.988281 L 257.003906 105.742188 L 257.230469 105.25 L 257.683594 104.289063 L 258.59375 102.449219 L 258.707031 102.226563 L 258.820313 102.007813 L 259.046875 101.574219 L 259.503906 100.734375 L 260.414063 99.164063 L 260.640625 98.796875 L 260.867188 98.441406 L 261.320313 97.757813 L 261.433594 97.59375 L 261.550781 97.433594 L 261.777344 97.121094 L 262.230469 96.53125 L 262.34375 96.390625 L 262.457031 96.253906 L 262.6875 95.988281 L 263.140625 95.492188 L 263.367188 95.265625 L 263.59375 95.050781 L 264.050781 94.660156 L 264.15625 94.574219 L 264.261719 94.496094 L 264.472656 94.34375 L 264.582031 94.269531 L 264.6875 94.203125 L 264.898438 94.074219 L 265.109375 93.957031 L 265.214844 93.902344 L 265.324219 93.851563 L 265.535156 93.757813 L 265.746094 93.679688 L 265.851563 93.644531 L 265.960938 93.609375 L 266.171875 93.554688 L 266.277344 93.53125 L 266.488281 93.492188 L 266.59375 93.476563 L 266.703125 93.46875 L 266.914063 93.453125 L 267.125 93.453125 L 267.230469 93.457031 L 267.339844 93.464844 L 267.550781 93.488281 L 267.65625 93.503906 L 267.761719 93.523438 L 267.867188 93.546875 L 267.976563 93.574219 L 268.082031 93.601563 L 268.1875 93.632813 L 268.292969 93.667969 L 268.503906 93.746094 L 268.609375 93.789063 L 268.71875 93.835938 L 268.824219 93.886719 L 268.929688 93.941406 L 269.140625 94.054688 L 269.246094 94.117188 L 269.355469 94.183594 L 269.566406 94.320313 L 269.671875 94.394531 L 269.777344 94.472656 L 269.988281 94.636719 L 270.097656 94.71875 L 270.203125 94.808594 L 270.414063 94.996094 L 270.839844 95.398438 L 270.953125 95.515625 L 271.070313 95.636719 L 271.296875 95.886719 L 271.757813 96.429688 L 271.875 96.570313 L 271.988281 96.71875 L 272.21875 97.019531 L 272.679688 97.65625 L 272.792969 97.820313 L 272.910156 97.992188 L 273.136719 98.335938 L 273.597656 99.066406 L 274.519531 100.640625 L 274.632813 100.847656 L 274.746094 101.058594 L 274.976563 101.488281 L 275.4375 102.367188 L 276.355469 104.222656 L 278.195313 108.238281 L 278.308594 108.492188 L 278.421875 108.75 L 278.648438 109.269531 L 279.101563 110.3125 L 280.003906 112.421875 L 281.808594 116.664063 L 282.261719 117.710938 L 282.710938 118.746094 L 283.613281 120.777344 L 285.421875 124.578125 L 285.632813 124.992188 L 285.839844 125.402344 L 286.261719 126.199219 L 287.105469 127.699219 L 287.210938 127.875 L 287.316406 128.054688 L 287.527344 128.398438 L 287.949219 129.0625 L 288.789063 130.285156 L 288.894531 130.425781 L 289 130.5625 L 289.210938 130.832031 L 289.632813 131.34375 L 289.738281 131.464844 L 289.84375 131.582031 L 290.054688 131.8125 L 290.472656 132.234375 L 290.683594 132.429688 L 290.894531 132.613281 L 291 132.703125 L 291.316406 132.949219 L 291.527344 133.097656 L 291.738281 133.234375 L 291.84375 133.300781 L 291.949219 133.363281 L 292.160156 133.476563 L 292.273438 133.535156 L 292.5 133.636719 L 292.613281 133.683594 L 292.730469 133.726563 L 292.84375 133.765625 L 293.070313 133.835938 L 293.1875 133.863281 L 293.300781 133.890625 L 293.527344 133.929688 L 293.640625 133.945313 L 293.757813 133.953125 L 293.871094 133.960938 L 293.984375 133.964844 L 294.214844 133.964844 L 294.328125 133.957031 L 294.554688 133.933594 L 294.671875 133.914063 L 294.785156 133.894531 L 295.011719 133.839844 L 295.125 133.808594 L 295.242188 133.773438 L 295.355469 133.734375 L 295.46875 133.691406 L 295.582031 133.644531 L 295.8125 133.542969 L 296.039063 133.425781 L 296.269531 133.292969 L 296.382813 133.222656 L 296.496094 133.148438 L 296.726563 132.992188 L 296.953125 132.820313 L 297.183594 132.632813 L 297.636719 132.222656 L 297.753906 132.109375 L 297.867188 131.996094 L 298.09375 131.757813 L 298.550781 131.242188 L 298.664063 131.105469 L 298.78125 130.964844 L 299.007813 130.675781 L 299.464844 130.0625 L 299.570313 129.914063 L 299.679688 129.761719 L 299.890625 129.449219 L 300.316406 128.792969 L 301.171875 127.375 L 301.277344 127.1875 L 301.382813 126.996094 L 301.597656 126.609375 L 302.023438 125.816406 L 302.875 124.136719 L 302.980469 123.921875 L 303.089844 123.699219 L 303.300781 123.257813 L 303.726563 122.351563 L 304.582031 120.480469 L 306.285156 116.542969 L 306.390625 116.296875 L 306.496094 116.046875 L 306.703125 115.550781 L 307.121094 114.554688 L 307.957031 112.554688 L 309.628906 108.589844 L 309.839844 108.105469 L 310.046875 107.621094 L 310.464844 106.660156 L 311.300781 104.792969 L 312.972656 101.304688 L 313.085938 101.082031 L 313.425781 100.425781 L 313.878906 99.585938 L 314.785156 98.015625 L 314.898438 97.828125 L 315.011719 97.644531 L 315.238281 97.289063 L 315.691406 96.605469 L 316.601563 95.375 L 316.714844 95.234375 L 316.828125 95.097656 L 317.054688 94.832031 L 317.507813 94.339844 L 317.621094 94.222656 L 317.734375 94.109375 L 317.960938 93.894531 L 318.414063 93.503906 L 318.640625 93.324219 L 318.867188 93.164063 L 318.980469 93.085938 L 319.09375 93.011719 L 319.433594 92.8125 L 319.546875 92.753906 L 319.773438 92.644531 L 320 92.550781 L 320.113281 92.507813 L 320.226563 92.46875 L 320.4375 92.40625 L 320.546875 92.378906 L 320.757813 92.332031 L 320.96875 92.300781 L 321.179688 92.277344 L 321.390625 92.269531 L 321.496094 92.269531 L 321.707031 92.277344 L 321.8125 92.285156 L 321.921875 92.296875 L 322.027344 92.3125 L 322.238281 92.351563 L 322.34375 92.375 L 322.449219 92.402344 L 322.660156 92.464844 L 322.976563 92.582031 L 323.1875 92.675781 L 323.296875 92.726563 L 323.402344 92.78125 L 323.613281 92.894531 L 323.71875 92.957031 L 323.824219 93.023438 L 324.035156 93.164063 L 324.246094 93.3125 L 324.5625 93.558594 L 324.671875 93.648438 L 324.882813 93.832031 L 325.304688 94.234375 L 325.410156 94.339844 L 325.515625 94.449219 L 325.726563 94.675781 L 326.152344 95.160156 L 326.996094 96.25 L 327.113281 96.410156 L 327.226563 96.570313 L 327.457031 96.902344 L 327.914063 97.597656 L 328.832031 99.109375 L 328.945313 99.308594 L 329.0625 99.507813 L 329.289063 99.917969 L 329.75 100.757813 L 330.667969 102.527344 L 330.894531 102.988281 L 331.125 103.453125 L 331.582031 104.398438 L 332.5 106.347656 L 334.335938 110.378906 L 334.441406 110.617188 L 334.550781 110.855469 L 334.765625 111.328125 L 335.191406 112.28125 L 336.046875 114.164063 L 337.761719 117.8125 L 337.867188 118.03125 L 338.617188 119.53125 L 339.476563 121.160156 L 339.6875 121.550781 L 339.902344 121.933594 L 340.332031 122.675781 L 341.1875 124.070313 L 341.292969 124.230469 L 341.609375 124.699219 L 342.027344 125.292969 L 342.132813 125.4375 L 342.238281 125.578125 L 342.449219 125.851563 L 342.867188 126.371094 L 343.078125 126.613281 L 343.289063 126.847656 L 343.707031 127.285156 L 343.917969 127.488281 L 344.128906 127.675781 L 344.546875 128.027344 L 344.757813 128.183594 L 344.96875 128.332031 L 345.070313 128.398438 L 345.175781 128.464844 L 345.386719 128.589844 L 345.597656 128.699219 L 345.808594 128.800781 L 345.910156 128.84375 L 346.015625 128.886719 L 346.226563 128.960938 L 346.332031 128.996094 L 346.648438 129.078125 L 346.75 129.097656 L 346.855469 129.117188 L 347.171875 129.152344 L 347.382813 129.160156 L 347.488281 129.160156 L 347.589844 129.15625 L 347.800781 129.140625 L 347.90625 129.125 L 348.019531 129.109375 L 348.246094 129.0625 L 348.363281 129.035156 L 348.476563 129.003906 L 348.703125 128.925781 L 348.816406 128.882813 L 348.929688 128.835938 L 349.042969 128.785156 L 349.160156 128.734375 L 349.273438 128.675781 L 349.5 128.550781 L 349.726563 128.410156 L 349.84375 128.332031 L 349.957031 128.253906 L 350.183594 128.082031 L 350.296875 127.992188 L 350.410156 127.898438 L 350.640625 127.703125 L 350.867188 127.492188 L 351.09375 127.265625 L 351.550781 126.769531 L 351.664063 126.640625 L 351.777344 126.503906 L 352.003906 126.222656 L 352.460938 125.621094 L 352.6875 125.300781 L 352.917969 124.96875 L 353.371094 124.265625 L 353.484375 124.082031 L 353.597656 123.894531 L 353.828125 123.511719 L 354.28125 122.710938 L 355.195313 120.976563 L 355.300781 120.765625 L 355.617188 120.109375 L 356.042969 119.210938 L 356.894531 117.3125 L 358.59375 113.195313 L 361.996094 104.164063 L 362.109375 103.847656 L 362.226563 103.535156 L 362.457031 102.910156 L 362.914063 101.65625 L 363.835938 99.167969 L 365.679688 94.355469 L 365.792969 94.0625 L 365.910156 93.773438 L 366.140625 93.199219 L 366.601563 92.074219 L 367.523438 89.902344 L 367.636719 89.640625 L 367.753906 89.378906 L 367.984375 88.867188 L 368.445313 87.867188 L 369.363281 85.980469 L 369.589844 85.542969 L 369.816406 85.113281 L 370.269531 84.292969 L 370.496094 83.894531 L 370.722656 83.511719 L 371.171875 82.777344 L 371.285156 82.601563 L 371.398438 82.429688 L 371.625 82.089844 L 372.078125 81.453125 L 372.304688 81.148438 L 372.53125 80.859375 L 372.984375 80.320313 L 373.09375 80.195313 L 373.207031 80.070313 L 373.433594 79.832031 L 373.660156 79.605469 L 373.886719 79.394531 L 374 79.292969 L 374.113281 79.195313 L 374.339844 79.007813 L 374.792969 78.675781 L 374.90625 78.601563 L 375.019531 78.53125 L 375.242188 78.398438 L 375.355469 78.335938 L 375.46875 78.277344 L 375.695313 78.167969 L 375.921875 78.074219 L 376.148438 77.996094 L 376.375 77.925781 L 376.601563 77.871094 L 376.8125 77.832031 L 376.917969 77.820313 L 377.023438 77.804688 L 377.234375 77.789063 L 377.339844 77.785156 L 377.550781 77.785156 L 377.65625 77.789063 L 377.867188 77.804688 L 378.183594 77.851563 L 378.289063 77.871094 L 378.394531 77.894531 L 378.605469 77.949219 L 378.710938 77.980469 L 378.921875 78.050781 L 379.132813 78.132813 L 379.238281 78.175781 L 379.34375 78.222656 L 379.554688 78.324219 L 379.765625 78.433594 L 379.976563 78.554688 L 380.1875 78.6875 L 380.398438 78.828125 L 380.820313 79.136719 L 381.03125 79.300781 L 381.242188 79.480469 L 381.664063 79.855469 L 381.875 80.058594 L 382.085938 80.269531 L 382.507813 80.710938 L 383.351563 81.683594 L 383.578125 81.964844 L 383.808594 82.253906 L 384.265625 82.851563 L 385.179688 84.121094 L 387.011719 86.871094 L 387.238281 87.230469 L 387.46875 87.585938 L 387.925781 88.308594 L 388.839844 89.75 L 390.667969 92.558594 L 390.777344 92.714844 L 390.882813 92.875 L 391.097656 93.183594 L 391.523438 93.792969 L 392.378906 94.949219 L 392.589844 95.222656 L 392.804688 95.492188 L 393.230469 96.007813 L 394.085938 96.953125 L 394.191406 97.0625 L 394.300781 97.171875 L 394.511719 97.378906 L 394.941406 97.769531 L 395.046875 97.863281 L 395.152344 97.953125 L 395.367188 98.125 L 395.792969 98.441406 L 395.902344 98.511719 L 396.007813 98.582031 L 396.222656 98.714844 L 396.328125 98.777344 L 396.433594 98.835938 L 396.648438 98.949219 L 396.753906 99 L 396.863281 99.046875 L 396.96875 99.09375 L 397.074219 99.136719 L 397.183594 99.175781 L 397.289063 99.214844 L 397.394531 99.25 L 397.503906 99.28125 L 397.605469 99.308594 L 397.710938 99.335938 L 397.816406 99.359375 L 397.921875 99.378906 L 398.027344 99.394531 L 398.128906 99.410156 L 398.445313 99.433594 L 398.652344 99.433594 L 398.863281 99.425781 L 398.96875 99.414063 L 399.070313 99.402344 L 399.175781 99.386719 L 399.28125 99.367188 L 399.492188 99.320313 L 399.59375 99.292969 L 399.699219 99.261719 L 399.804688 99.226563 L 400.015625 99.148438 L 400.117188 99.101563 L 400.222656 99.054688 L 400.433594 98.953125 L 400.539063 98.894531 L 400.640625 98.835938 L 400.851563 98.707031 L 400.957031 98.636719 L 401.0625 98.5625 L 401.269531 98.410156 L 401.480469 98.238281 L 401.6875 98.058594 L 401.898438 97.863281 L 402.105469 97.65625 L 402.527344 97.199219 L 402.628906 97.078125 L 402.734375 96.953125 L 402.945313 96.695313 L 403.363281 96.132813 L 403.46875 95.984375 L 403.574219 95.832031 L 403.78125 95.519531 L 404.199219 94.855469 L 404.3125 94.667969 L 404.429688 94.472656 L 404.65625 94.074219 L 405.109375 93.234375 L 406.015625 91.378906 L 406.132813 91.128906 L 406.246094 90.878906 L 406.472656 90.363281 L 406.925781 89.292969 L 407.835938 86.988281 L 408.0625 86.378906 L 408.289063 85.753906 L 408.742188 84.476563 L 409.652344 81.769531 L 411.46875 75.859375 L 411.574219 75.492188 L 411.679688 75.128906 L 411.890625 74.394531 L 412.316406 72.902344 L 413.164063 69.839844 L 414.859375 63.484375 L 418.25 50.351563 L 418.484375 49.4375 L 418.722656 48.523438 L 419.195313 46.710938 L 420.140625 43.128906 L 422.035156 36.238281 L 422.152344 35.820313 L 422.269531 35.40625 L 422.507813 34.585938 L 422.980469 32.96875 L 423.925781 29.84375 L 424.046875 29.464844 L 424.164063 29.089844 L 424.402344 28.34375 L 424.875 26.882813 L 424.992188 26.523438 L 425.109375 26.167969 L 425.347656 25.464844 L 425.464844 25.117188 L 425.582031 24.773438 L 425.703125 24.433594 L 425.820313 24.09375 " transform="matrix(1,0,0,1,-74,-13)"/>
</g>
</svg>
