<?xml version="1.0" encoding="utf-8"?>
<svg viewBox="79.734 162.601 295.641 59.364" width="295.641" height="59.364" xmlns="http://www.w3.org/2000/svg" xmlns:bx="https://boxy-svg.com">
  <text style="fill: rgb(51, 51, 51); font-family: Arial, sans-serif; font-size: 28px; font-weight: 700; white-space: pre;" transform="matrix(1, 0, 0, 1, 0, 1.070119)"><tspan x="79.744" y="186.845" style="fill: rgb(0, 0, 0);">Intelligence</tspan><tspan> </tspan><tspan x="79.744" dy="1em">​</tspan><tspan style="fill: rgb(0, 0, 0);">              perati  nalized</tspan></text>
  <path style="fill: rgb(245, 124, 0);" transform="matrix(-0.036114, -0.038615, 0.039939, -0.037354, 185.63765, 261.069977)" d="M 803.716 388.682 L 850.284 388.682 L 860.111 459.807 A 123.707 123.707 0 0 1 887.869 471.305 L 945.111 427.961 L 978.039 460.889 L 934.695 518.131 A 123.707 123.707 0 0 1 946.193 545.889 L 1017.318 555.716 L 1017.318 602.284 L 946.193 612.111 A 123.707 123.707 0 0 1 934.695 639.869 L 978.039 697.111 L 945.111 730.039 L 887.869 686.695 A 123.707 123.707 0 0 1 860.111 698.193 L 850.284 769.318 L 803.716 769.318 L 793.889 698.193 A 123.707 123.707 0 0 1 766.131 686.695 L 708.889 730.039 L 675.961 697.111 L 719.305 639.869 A 123.707 123.707 0 0 1 707.807 612.111 L 636.682 602.284 L 636.682 555.716 L 707.807 545.889 A 123.707 123.707 0 0 1 719.305 518.131 L 675.961 460.889 L 708.889 427.961 L 766.131 471.305 A 123.707 123.707 0 0 1 793.889 459.807 Z M 827 521.905 A 57.095 57.095 0 0 0 827 636.095 A 57.095 57.095 0 0 0 827 521.905" bx:shape="cog 827 579 57.095 123.707 190.318 0.38 8 1@94a7ab53"/>
  <path style="fill: rgb(245, 124, 0);" transform="matrix(-0.016652, -0.039223, 0.040974, -0.017396, 262.562653, 250.6577)" d="M 803.716 388.682 L 850.284 388.682 L 860.111 459.807 A 123.707 123.707 0 0 1 887.869 471.305 L 945.111 427.961 L 978.039 460.889 L 934.695 518.131 A 123.707 123.707 0 0 1 946.193 545.889 L 1017.318 555.716 L 1017.318 602.284 L 946.193 612.111 A 123.707 123.707 0 0 1 934.695 639.869 L 978.039 697.111 L 945.111 730.039 L 887.869 686.695 A 123.707 123.707 0 0 1 860.111 698.193 L 850.284 769.318 L 803.716 769.318 L 793.889 698.193 A 123.707 123.707 0 0 1 766.131 686.695 L 708.889 730.039 L 675.961 697.111 L 719.305 639.869 A 123.707 123.707 0 0 1 707.807 612.111 L 636.682 602.284 L 636.682 555.716 L 707.807 545.889 A 123.707 123.707 0 0 1 719.305 518.131 L 675.961 460.889 L 708.889 427.961 L 766.131 471.305 A 123.707 123.707 0 0 1 793.889 459.807 Z M 827 521.905 A 57.095 57.095 0 0 0 827 636.095 A 57.095 57.095 0 0 0 827 521.905" bx:shape="cog 827 579 57.095 123.707 190.318 0.38 8 1@94a7ab53"/>
</svg>