<?xml version="1.0" encoding="UTF-8" standalone="no"?>
<!DOCTYPE svg PUBLIC "-//W3C//DTD SVG 1.1//EN" "http://www.w3.org/Graphics/SVG/1.1/DTD/svg11.dtd">
<!-- Generated by Microsoft Visio, SVG Export nas_main_figure.svg Page-1 -->
<svg xmlns="http://www.w3.org/2000/svg" xmlns:xlink="http://www.w3.org/1999/xlink" xmlns:ev="http://www.w3.org/2001/xml-events"
		xmlns:v="http://schemas.microsoft.com/visio/2003/SVGExtensions/" width="7.86893in" height="9.84946in"
		viewBox="0 0 566.563 709.161" xml:space="preserve" color-interpolation-filters="sRGB" class="st28">
	<v:documentProperties v:langID="1033" v:metric="true" v:viewMarkup="false">
		<v:userDefs>
			<v:ud v:nameU="msvSubprocessMaster" v:prompt="" v:val="VT4(Rectangle)"/>
			<v:ud v:nameU="msvNoAutoConnect" v:val="VT0(1):26"/>
		</v:userDefs>
	</v:documentProperties>

	<style type="text/css">
	<![CDATA[
		.st1 {fill:none;stroke:#5fcbef;stroke-linecap:round;stroke-linejoin:round;stroke-opacity:0.6;stroke-width:2.25}
		.st2 {fill:url(#grad0-6);stroke:#ffffff;stroke-linecap:round;stroke-linejoin:round;stroke-opacity:0.6;stroke-width:1}
		.st3 {fill:#ffffff;font-family:Franklin Gothic Book;font-size:0.833336em}
		.st4 {fill:none;stroke:none;stroke-linecap:round;stroke-linejoin:round;stroke-width:1}
		.st5 {fill:#23b8e9;font-family:Verdana;font-size:1.00001em}
		.st6 {fill:#23b8e9;font-family:Verdana;font-size:1.16666em}
		.st7 {baseline-shift:-32.4941%;font-size:0.649882em}
		.st8 {font-size:1em}
		.st9 {marker-end:url(#mrkr4-88);stroke:#15aadb;stroke-linecap:round;stroke-linejoin:round;stroke-width:1}
		.st10 {fill:#15aadb;fill-opacity:1;stroke:#15aadb;stroke-opacity:1;stroke-width:0.28409090909091}
		.st11 {fill:#bfeaf8;stroke:#ffffff;stroke-linecap:round;stroke-linejoin:round;stroke-opacity:0.6;stroke-width:1}
		.st12 {fill:#ffffff}
		.st13 {stroke:#16aee0;stroke-linecap:round;stroke-linejoin:round;stroke-opacity:0.6;stroke-width:1}
		.st14 {fill:#0a4d63;font-family:Franklin Gothic Book;font-size:2.50001em}
		.st15 {stroke:#15aadb;stroke-linecap:round;stroke-linejoin:round;stroke-width:1}
		.st16 {stroke:#2e83c3;stroke-linecap:round;stroke-linejoin:round;stroke-opacity:0.6;stroke-width:1}
		.st17 {fill:#23b8e9;font-family:Franklin Gothic Book;font-size:1.16666em}
		.st18 {fill:url(#grad0-207);stroke:#ffffff;stroke-linecap:round;stroke-linejoin:round;stroke-opacity:0.6;stroke-width:1}
		.st19 {fill:url(#grad0-212);stroke:#ffffff;stroke-linecap:round;stroke-linejoin:round;stroke-opacity:0.6;stroke-width:1}
		.st20 {fill:url(#grad0-207);stroke:#23b8e9;stroke-linecap:round;stroke-linejoin:round;stroke-opacity:0.6;stroke-width:1}
		.st21 {fill:#16b0e3;stroke:#ffffff;stroke-linecap:round;stroke-linejoin:round;stroke-opacity:0.6;stroke-width:1}
		.st22 {baseline-shift:-19.497%;font-size:0.38994em}
		.st23 {fill:url(#grad0-6)}
		.st24 {stroke:#ffffff;stroke-linecap:round;stroke-linejoin:round;stroke-opacity:0.6;stroke-width:1}
		.st25 {fill:#0a4d63;font-family:Franklin Gothic Book;font-size:0.833336em}
		.st26 {fill:#23b8e9;font-family:Franklin Gothic Book;font-size:1.5em}
		.st27 {fill:#23b8e9;font-family:Franklin Gothic Book;font-size:1.00001em}
		.st28 {fill:none;fill-rule:evenodd;font-size:12px;overflow:visible;stroke-linecap:square;stroke-miterlimit:3}
	]]>
	</style>

	<defs id="Patterns_And_Gradients">
		<linearGradient id="grad0-6" x1="0" y1="0" x2="1" y2="0" gradientTransform="rotate(30 0.5 0.5)">
			<stop offset="0.65" stop-color="#77d2f0" stop-opacity="1"/>
			<stop offset="0.65" stop-color="#5dcaee" stop-opacity="1"/>
		</linearGradient>
		<linearGradient id="grad0-85" x1="0" y1="0" x2="1" y2="0" gradientTransform="rotate(90 0.5 0.5)">
			<stop offset="0" stop-color="#ffffff" stop-opacity="1"/>
			<stop offset="0" stop-color="#ffffff" stop-opacity="1"/>
			<stop offset="0" stop-color="#ffffff" stop-opacity="1"/>
			<stop offset="0" stop-color="#ffffff" stop-opacity="1"/>
			<stop offset="0" stop-color="#ffffff" stop-opacity="1"/>
			<stop offset="0" stop-color="#ffffff" stop-opacity="1"/>
			<stop offset="0" stop-color="#ffffff" stop-opacity="1"/>
			<stop offset="0" stop-color="#ffffff" stop-opacity="1"/>
			<stop offset="0" stop-color="#ffffff" stop-opacity="1"/>
			<stop offset="0" stop-color="#ffffff" stop-opacity="1"/>
		</linearGradient>
		<linearGradient id="grad0-207" x1="0" y1="0" x2="1" y2="0" gradientTransform="rotate(25 0.5 0.5)">
			<stop offset="0.2" stop-color="#23b8e9" stop-opacity="1"/>
			<stop offset="0.2" stop-color="#5dcaee" stop-opacity="1"/>
			<stop offset="0.6" stop-color="#5dcaee" stop-opacity="1"/>
			<stop offset="0.6" stop-color="#23b8e9" stop-opacity="1"/>
			<stop offset="0.85" stop-color="#23b8e9" stop-opacity="1"/>
			<stop offset="0.85" stop-color="#1393be" stop-opacity="1"/>
		</linearGradient>
		<linearGradient id="grad0-212" x1="0" y1="0" x2="1" y2="0" gradientTransform="rotate(30 0.5 0.5)">
			<stop offset="0.65" stop-color="#48c4ec" stop-opacity="1"/>
			<stop offset="0.65" stop-color="#2dbbea" stop-opacity="1"/>
		</linearGradient>
	</defs>
	<defs id="Markers">
		<g id="lend4">
			<path d="M 2 1 L 0 0 L 2 -1 L 2 1 " style="stroke:none"/>
		</g>
		<marker id="mrkr4-88" class="st10" v:arrowType="4" v:arrowSize="2" v:setback="7.04" refX="-7.04" orient="auto"
				markerUnits="strokeWidth" overflow="visible">
			<use xlink:href="#lend4" transform="scale(-3.52,-3.52) "/>
		</marker>
	</defs>
	<g v:mID="0" v:index="1" v:groupContext="foregroundPage">
		<v:userDefs>
			<v:ud v:nameU="msvThemeOrder" v:val="VT0(0):26"/>
		</v:userDefs>
		<title>Page-1</title>
		<v:pageProperties v:drawingScale="0.0393701" v:pageScale="0.0393701" v:drawingUnits="24" v:shadowOffsetX="8.50394"
				v:shadowOffsetY="-8.50394"/>
		<v:layer v:name="Callout" v:index="0"/>
		<v:layer v:name="Connector" v:index="1"/>
		<v:layer v:name="Flowchart" v:index="2"/>
		<g id="shape39-1" v:mID="39" v:groupContext="shape" transform="translate(127.193,-432.283)">
			<title>Rectangle.39</title>
			<v:userDefs>
				<v:ud v:nameU="visVersion" v:val="VT0(15):26"/>
			</v:userDefs>
			<rect x="0" y="680.815" width="325.984" height="28.3465" class="st1"/>
		</g>
		<g id="shape1-3" v:mID="1" v:groupContext="shape" transform="translate(127.193,-616.535)">
			<title>Rectangle</title>
			<desc>LSTM Controller</desc>
			<v:userDefs>
				<v:ud v:nameU="visVersion" v:val="VT0(15):26"/>
			</v:userDefs>
			<v:textBlock v:margins="rect(4,4,4,4)" v:tabSpace="42.5197"/>
			<v:textRect cx="162.992" cy="666.642" width="325.99" height="85.0394"/>
			<rect x="0" y="624.122" width="325.984" height="85.0394" class="st2"/>
			<text x="129.43" y="669.64" class="st3" v:langID="1033"><v:paragraph v:horizAlign="1"/><v:tabList/>LSTM Controller</text>		</g>
		<g id="shape4-8" v:mID="4" v:groupContext="shape" transform="translate(127.193,-545.669)">
			<title>Sheet.4</title>
			<desc>h_0</desc>
			<v:textBlock v:margins="rect(4,4,4,4)" v:tabSpace="42.5197"/>
			<v:textRect cx="28.3465" cy="694.988" width="56.7" height="28.3465"/>
			<rect x="0" y="680.815" width="56.6929" height="28.3465" class="st4"/>
			<text x="16.92" y="698.59" class="st5" v:langID="1033"><v:paragraph v:horizAlign="1"/><v:tabList/>h_0</text>		</g>
		<g id="shape6-11" v:mID="6" v:groupContext="shape" transform="translate(198.059,-545.669)">
			<title>Sheet.6</title>
			<desc>h_1</desc>
			<v:textBlock v:margins="rect(4,4,4,4)" v:tabSpace="42.5197"/>
			<v:textRect cx="28.3465" cy="694.988" width="56.7" height="28.3465"/>
			<rect x="0" y="680.815" width="56.6929" height="28.3465" class="st4"/>
			<text x="16.92" y="698.59" class="st5" v:langID="1033"><v:paragraph v:horizAlign="1"/><v:tabList/>h_1</text>		</g>
		<g id="shape7-14" v:mID="7" v:groupContext="shape" transform="translate(268.925,-545.669)">
			<title>Sheet.7</title>
			<desc>h_2</desc>
			<v:textBlock v:margins="rect(4,4,4,4)" v:tabSpace="42.5197"/>
			<v:textRect cx="28.3465" cy="694.988" width="56.7" height="28.3465"/>
			<rect x="0" y="680.815" width="56.6929" height="28.3465" class="st4"/>
			<text x="16.92" y="698.59" class="st5" v:langID="1033"><v:paragraph v:horizAlign="1"/><v:tabList/>h_2</text>		</g>
		<g id="shape8-17" v:mID="8" v:groupContext="shape" transform="translate(396.484,-545.669)">
			<title>Sheet.8</title>
			<desc>h_t</desc>
			<v:textBlock v:margins="rect(4,4,4,4)" v:tabSpace="42.5197"/>
			<v:textRect cx="28.3465" cy="694.988" width="56.7" height="28.3465"/>
			<rect x="0" y="680.815" width="56.6929" height="28.3465" class="st4"/>
			<text x="18.37" y="698.59" class="st5" v:langID="1033"><v:paragraph v:horizAlign="1"/><v:tabList/>h_t</text>		</g>
		<g id="shape9-20" v:mID="9" v:groupContext="shape" transform="translate(332.705,-545.669)">
			<title>Sheet.9</title>
			<desc>. . .</desc>
			<v:textBlock v:margins="rect(4,4,4,4)" v:tabSpace="42.5197"/>
			<v:textRect cx="31.8898" cy="694.988" width="63.78" height="28.3465"/>
			<rect x="0" y="680.815" width="63.7795" height="28.3465" class="st4"/>
			<text x="4.56" y="699.19" class="st6" v:langID="1033"><v:paragraph v:horizAlign="1"/><v:tabList/>.    .    .</text>		</g>
		<g id="shape10-23" v:mID="10" v:groupContext="shape" transform="translate(127.193,-488.976)">
			<title>Sheet.10</title>
			<desc>c0 ~ p0(h0)</desc>
			<v:textBlock v:margins="rect(4,4,4,4)" v:tabSpace="42.5197"/>
			<v:textRect cx="28.3465" cy="694.988" width="56.7" height="28.3465"/>
			<rect x="0" y="680.815" width="56.6929" height="28.3465" class="st4"/>
			<text x="16.46" y="691.39" class="st5" v:langID="1033"><v:paragraph v:horizAlign="1"/><v:tabList/>c<tspan dy="-0.279em"
						class="st7" v:baseFontSize="12">0 </tspan><tspan dy="0.181em" class="st8">~ </tspan><tspan x="10.4"
						dy="1.2em" class="st8">p</tspan><tspan dy="-0.279em" class="st7" v:baseFontSize="12">0</tspan><tspan
						dy="0.181em" class="st8">(h</tspan><tspan dy="-0.279em" class="st7" v:baseFontSize="12">0</tspan><tspan
						dy="0.181em" class="st8">)</tspan></text>		</g>
		<g id="shape11-33" v:mID="11" v:groupContext="shape" transform="translate(198.059,-488.976)">
			<title>Sheet.11</title>
			<desc>c1 ~ p1(h1)</desc>
			<v:textBlock v:margins="rect(4,4,4,4)" v:tabSpace="42.5197"/>
			<v:textRect cx="28.3465" cy="694.988" width="56.7" height="28.3465"/>
			<rect x="0" y="680.815" width="56.6929" height="28.3465" class="st4"/>
			<text x="15.72" y="691.39" class="st5" v:langID="1033"><v:paragraph v:horizAlign="1"/><v:tabList/>c<tspan dy="-0.279em"
						class="st7" v:baseFontSize="12">1</tspan><tspan dy="0.181em" class="st8"> </tspan>~ <tspan x="10.4"
						dy="1.2em" class="st8">p</tspan><tspan dy="-0.279em" class="st7" v:baseFontSize="12">1</tspan><tspan
						dy="0.181em" class="st8">(h</tspan><tspan dy="-0.279em" class="st7" v:baseFontSize="12">1</tspan><tspan
						dy="0.181em" class="st8">)</tspan></text>		</g>
		<g id="shape12-43" v:mID="12" v:groupContext="shape" transform="translate(268.925,-488.976)">
			<title>Sheet.12</title>
			<desc>c2 ~ p2(h2)</desc>
			<v:textBlock v:margins="rect(4,4,4,4)" v:tabSpace="42.5197"/>
			<v:textRect cx="28.3465" cy="694.988" width="56.7" height="28.3465"/>
			<rect x="0" y="680.815" width="56.6929" height="28.3465" class="st4"/>
			<text x="15.72" y="691.39" class="st5" v:langID="1033"><v:paragraph v:horizAlign="1"/><v:tabList/>c<tspan dy="-0.279em"
						class="st7" v:baseFontSize="12">2</tspan><tspan dy="0.181em" class="st8"> </tspan>~ <tspan x="10.4"
						dy="1.2em" class="st8">p</tspan><tspan dy="-0.279em" class="st7" v:baseFontSize="12">2</tspan><tspan
						dy="0.181em" class="st8">(h</tspan><tspan dy="-0.279em" class="st7" v:baseFontSize="12">2</tspan><tspan
						dy="0.181em" class="st8">)</tspan></text>		</g>
		<g id="shape13-53" v:mID="13" v:groupContext="shape" transform="translate(396.484,-488.976)">
			<title>Sheet.13</title>
			<desc>ct ~ p3(h3)</desc>
			<v:textBlock v:margins="rect(4,4,4,4)" v:tabSpace="42.5197"/>
			<v:textRect cx="28.3465" cy="694.988" width="56.7" height="28.3465"/>
			<rect x="0" y="680.815" width="56.6929" height="28.3465" class="st4"/>
			<text x="16.66" y="691.39" class="st5" v:langID="1033"><v:paragraph v:horizAlign="1"/><v:tabList/>c<tspan dy="-0.279em"
						class="st7" v:baseFontSize="12">t</tspan><tspan dy="0.181em" class="st8"> </tspan>~ <tspan x="10.4"
						dy="1.2em" class="st8">p</tspan><tspan dy="-0.279em" class="st7" v:baseFontSize="12">3</tspan><tspan
						dy="0.181em" class="st8">(h</tspan><tspan dy="-0.279em" class="st7" v:baseFontSize="12">3</tspan><tspan
						dy="0.181em" class="st8">)</tspan></text>		</g>
		<g id="shape14-63" v:mID="14" v:groupContext="shape" transform="translate(332.705,-488.976)">
			<title>Sheet.14</title>
			<desc>. . .</desc>
			<v:textBlock v:margins="rect(4,4,4,4)" v:tabSpace="42.5197"/>
			<v:textRect cx="31.8898" cy="694.988" width="63.78" height="28.3465"/>
			<rect x="0" y="680.815" width="63.7795" height="28.3465" class="st4"/>
			<text x="4.56" y="699.19" class="st6" v:langID="1033"><v:paragraph v:horizAlign="1"/><v:tabList/>.    .    .</text>		</g>
		<g id="shape16-66" v:mID="16" v:groupContext="shape" transform="translate(127.193,-432.283)">
			<title>Sheet.16</title>
			<desc>h=3</desc>
			<v:textBlock v:margins="rect(4,4,4,4)" v:tabSpace="42.5197"/>
			<v:textRect cx="28.3465" cy="694.988" width="56.7" height="28.3465"/>
			<rect x="0" y="680.815" width="56.6929" height="28.3465" class="st4"/>
			<text x="15.82" y="698.59" class="st5" v:langID="1033"><v:paragraph v:horizAlign="1"/><v:tabList/>h=3</text>		</g>
		<g id="shape17-69" v:mID="17" v:groupContext="shape" transform="translate(198.059,-432.283)">
			<title>Sheet.17</title>
			<desc>w=3</desc>
			<v:textBlock v:margins="rect(4,4,4,4)" v:tabSpace="42.5197"/>
			<v:textRect cx="28.3465" cy="694.988" width="56.7" height="28.3465"/>
			<rect x="0" y="680.815" width="56.6929" height="28.3465" class="st4"/>
			<text x="14.71" y="698.59" class="st5" v:langID="1033"><v:paragraph v:horizAlign="1"/><v:tabList/>w=3</text>		</g>
		<g id="shape18-72" v:mID="18" v:groupContext="shape" transform="translate(268.925,-432.283)">
			<title>Sheet.18</title>
			<desc>k=36</desc>
			<v:textBlock v:margins="rect(4,4,4,4)" v:tabSpace="42.5197"/>
			<v:textRect cx="28.3465" cy="694.988" width="56.7" height="28.3465"/>
			<rect x="0" y="680.815" width="56.6929" height="28.3465" class="st4"/>
			<text x="12.26" y="698.59" class="st5" v:langID="1033"><v:paragraph v:horizAlign="1"/><v:tabList/>k=36</text>		</g>
		<g id="shape19-75" v:mID="19" v:groupContext="shape" transform="translate(396.484,-432.283)">
			<title>Sheet.19</title>
			<desc>s=2</desc>
			<v:textBlock v:margins="rect(4,4,4,4)" v:tabSpace="42.5197"/>
			<v:textRect cx="28.3465" cy="694.988" width="56.7" height="28.3465"/>
			<rect x="0" y="680.815" width="56.6929" height="28.3465" class="st4"/>
			<text x="16.5" y="698.59" class="st5" v:langID="1033"><v:paragraph v:horizAlign="1"/><v:tabList/>s=2</text>		</g>
		<g id="shape20-78" v:mID="20" v:groupContext="shape" transform="translate(332.705,-432.283)">
			<title>Sheet.20</title>
			<desc>. . .</desc>
			<v:textBlock v:margins="rect(4,4,4,4)" v:tabSpace="42.5197"/>
			<v:textRect cx="31.8898" cy="694.988" width="63.78" height="28.3465"/>
			<rect x="0" y="680.815" width="63.7795" height="28.3465" class="st4"/>
			<text x="4.56" y="699.19" class="st6" v:langID="1033"><v:paragraph v:horizAlign="1"/><v:tabList/>.    .    .</text>		</g>
		<g id="shape21-81" v:mID="21" v:groupContext="shape" v:layerMember="1" transform="translate(148.453,-545.669)">
			<title>Dynamic connector</title>
			<path d="M7.09 709.16 L7.09 730.47" class="st9"/>
		</g>
		<g id="shape24-89" v:mID="24" v:groupContext="shape" v:layerMember="1" transform="translate(219.319,-545.669)">
			<title>Dynamic connector.24</title>
			<path d="M7.09 709.16 L7.09 730.47" class="st9"/>
		</g>
		<g id="shape25-95" v:mID="25" v:groupContext="shape" v:layerMember="1" transform="translate(290.185,-545.669)">
			<title>Dynamic connector.25</title>
			<path d="M7.09 709.16 L7.09 730.47" class="st9"/>
		</g>
		<g id="shape26-101" v:mID="26" v:groupContext="shape" v:layerMember="1" transform="translate(417.744,-545.669)">
			<title>Dynamic connector.26</title>
			<path d="M7.09 709.16 L7.09 730.47" class="st9"/>
		</g>
		<g id="shape27-107" v:mID="27" v:groupContext="shape" v:layerMember="1" transform="translate(148.453,-488.976)">
			<title>Dynamic connector.27</title>
			<path d="M7.09 709.16 L7.09 730.47" class="st9"/>
		</g>
		<g id="shape28-113" v:mID="28" v:groupContext="shape" v:layerMember="1" transform="translate(219.319,-488.976)">
			<title>Dynamic connector.28</title>
			<path d="M7.09 709.16 L7.09 730.47" class="st9"/>
		</g>
		<g id="shape29-119" v:mID="29" v:groupContext="shape" v:layerMember="1" transform="translate(290.185,-488.976)">
			<title>Dynamic connector.29</title>
			<path d="M7.09 709.16 L7.09 730.47" class="st9"/>
		</g>
		<g id="shape30-125" v:mID="30" v:groupContext="shape" v:layerMember="1" transform="translate(417.744,-488.976)">
			<title>Dynamic connector.30</title>
			<path d="M7.09 709.16 L7.09 730.47" class="st9"/>
		</g>
		<g id="shape31-131" v:mID="31" v:groupContext="shape" v:layerMember="1" transform="translate(169.713,-517.323)">
			<title>Dynamic connector.31</title>
			<path d="M0 709.16 L36.66 684.72" class="st9"/>
		</g>
		<g id="shape32-137" v:mID="32" v:groupContext="shape" v:layerMember="1" transform="translate(240.579,-517.323)">
			<title>Dynamic connector.32</title>
			<path d="M0 709.16 L36.66 684.72" class="st9"/>
		</g>
		<g id="shape33-143" v:mID="33" v:groupContext="shape" v:layerMember="1" transform="translate(337.553,-517.323)">
			<title>Dynamic connector.33</title>
			<path d="M0 709.16 L38.81 684.58" class="st9"/>
		</g>
		<g id="shape36-149" v:mID="36" v:groupContext="shape" v:layerMember="1" transform="translate(169.713,-552.756)">
			<title>Dynamic connector.36</title>
			<path d="M0 702.07 L35.48 702.07" class="st9"/>
		</g>
		<g id="shape37-155" v:mID="37" v:groupContext="shape" v:layerMember="1" transform="translate(240.579,-552.756)">
			<title>Dynamic connector.37</title>
			<path d="M0 702.07 L35.48 702.07" class="st9"/>
		</g>
		<g id="group49-161" transform="translate(254.752,-333.071)" v:mID="49" v:groupContext="group" v:layerMember="2">
			<v:userDefs>
				<v:ud v:nameU="visVersion" v:prompt="" v:val="VT0(15):26"/>
				<v:ud v:nameU="ConnGap" v:prompt="" v:val="VT0(0.00012908222537757):24"/>
			</v:userDefs>
			<title>Subsidiary</title>
			<desc>A</desc>
			<g id="shape50-162" v:mID="50" v:groupContext="shape" v:layerMember="2">
				<title>Sheet.50</title>
				<path d="M42.92 638.3 L27.33 638.3 L27.33 661.15 L42.92 661.15 L42.92 638.3 ZM70.87 679.17 L50.31 679.17 L50.31 709.16
							 L70.87 709.16 L70.87 679.17 ZM46.06 679.17 L25.51 679.17 L25.51 709.16 L46.06 709.16 L46.06 679.17 ZM20.55
							 679.17 L0 679.17 L0 709.16 L20.55 709.16 L20.55 679.17 Z" class="st11"/>
			</g>
			<g id="shape51-164" v:mID="51" v:groupContext="shape" v:layerMember="2" transform="translate(6.37795,-5.20327)">
				<title>Sheet.51</title>
				<v:userDefs>
					<v:ud v:nameU="SurroundingRegionColor" v:prompt="" v:val="VT5(#23b8e9)"/>
					<v:ud v:nameU="SurroundingRegionColor" v:prompt="" v:val="VT5(#bfeaf8)"/>
				</v:userDefs>
				<path d="M30.74 648.97 L32.6 648.97 L32.6 647.99 L29.76 647.99 L29.76 653.29 L30.74 653.29 L30.74 648.97 ZM30.74
							 656.11 L32.6 656.11 L32.6 655.13 L29.76 655.13 L29.76 660.43 L30.74 660.43 L30.74 656.11 ZM25.77 648.97
							 L27.64 648.97 L27.64 647.99 L24.8 647.99 L24.8 653.29 L25.77 653.29 L25.77 648.97 ZM25.77 656.11 L27.64
							 656.11 L27.64 655.13 L24.8 655.13 L24.8 660.43 L25.77 660.43 L25.77 656.11 ZM56.25 690.55 L58.11 690.55
							 L58.11 689.57 L55.28 689.57 L55.28 694.88 L56.25 694.88 L56.25 690.55 ZM56.25 697.69 L58.11 697.69 L58.11
							 696.72 L55.28 696.72 L55.28 702.02 L56.25 702.02 L56.25 697.69 ZM56.25 704.84 L58.11 704.84 L58.11 703.86
							 L55.28 703.86 L55.28 709.16 L56.25 709.16 L56.25 704.84 ZM51.29 690.55 L53.15 690.55 L53.15 689.57 L50.31
							 689.57 L50.31 694.88 L51.29 694.88 L51.29 690.55 ZM51.29 697.69 L53.15 697.69 L53.15 696.72 L50.31 696.72
							 L50.31 702.02 L51.29 702.02 L51.29 697.69 ZM51.29 704.84 L53.15 704.84 L53.15 703.86 L50.31 703.86 L50.31
							 709.16 L51.29 709.16 L51.29 704.84 ZM31.44 690.55 L33.31 690.55 L33.31 689.57 L30.47 689.57 L30.47 694.88
							 L31.44 694.88 L31.44 690.55 ZM31.44 697.69 L33.31 697.69 L33.31 696.72 L30.47 696.72 L30.47 702.02 L31.44
							 702.02 L31.44 697.69 ZM31.44 704.84 L33.31 704.84 L33.31 703.86 L30.47 703.86 L30.47 709.16 L31.44 709.16
							 L31.44 704.84 ZM26.48 690.55 L28.35 690.55 L28.35 689.57 L25.51 689.57 L25.51 694.88 L26.48 694.88 L26.48
							 690.55 ZM26.48 697.69 L28.35 697.69 L28.35 696.72 L25.51 696.72 L25.51 702.02 L26.48 702.02 L26.48 697.69
							 ZM26.48 704.84 L28.35 704.84 L28.35 703.86 L25.51 703.86 L25.51 709.16 L26.48 709.16 L26.48 704.84 ZM5.93
							 690.55 L7.8 690.55 L7.8 689.57 L4.96 689.57 L4.96 694.88 L5.93 694.88 L5.93 690.55 ZM5.93 697.69 L7.8
							 697.69 L7.8 696.72 L4.96 696.72 L4.96 702.02 L5.93 702.02 L5.93 697.69 ZM5.93 704.84 L7.8 704.84 L7.8
							 703.86 L4.96 703.86 L4.96 709.16 L5.93 709.16 L5.93 704.84 ZM0.97 690.55 L2.83 690.55 L2.83 689.57 L0
							 689.57 L0 694.88 L0.97 694.88 L0.97 690.55 ZM0.97 697.69 L2.83 697.69 L2.83 696.72 L0 696.72 L0 702.02
							 L0.97 702.02 L0.97 697.69 ZM0.97 704.84 L2.83 704.84 L2.83 703.86 L0 703.86 L0 709.16 L0.97 709.16 L0.97
							 704.84 Z" class="st12"/>
			</g>
			<g id="shape52-167" v:mID="52" v:groupContext="shape" v:layerMember="2" transform="translate(9.56693,-33.8612)">
				<title>Sheet.52</title>
				<path d="M25.51 698.01 L25.51 709.16" class="st13"/>
				<path d="M51.02 709.16 L51.02 701.52 L0 701.48 L0 709.16" class="st13"/>
			</g>
			<g id="shape49-171" v:mID="49" v:groupContext="groupContent" v:layerMember="2">
				<v:textBlock v:margins="rect(4,4,4,4)" v:tabSpace="42.5197"/>
				<v:textRect cx="35.4331" cy="731.163" width="31.58" height="44.0037"/>
				<text x="27.4" y="740.16" class="st14" v:langID="1033"><v:paragraph v:horizAlign="1"/><v:tabList/>A</text>			</g>
		</g>
		<g id="shape53-173" v:mID="53" v:groupContext="shape" v:layerMember="1" transform="translate(127.193,-418.11)">
			<title>Dynamic connector.53</title>
			<path d="M0 709.16 L113.39 751.68" class="st15"/>
		</g>
		<g id="shape54-177" v:mID="54" v:groupContext="shape" v:layerMember="1" transform="translate(453.177,-418.11)">
			<title>Dynamic connector.54</title>
			<path d="M0 709.16 L-113.39 751.68" class="st15"/>
		</g>
		<g id="shape57-181" v:mID="57" v:groupContext="shape" transform="translate(779.661,418.61) rotate(90) scale(-1,1)">
			<title>Side parenthesis</title>
			<desc>1. Sample Arch.</desc>
			<v:userDefs>
				<v:ud v:nameU="TxtW" v:val="VT0(0.55555555555556):29"/>
				<v:ud v:nameU="TxtA" v:val="VT0(1.5707963267949):37"/>
				<v:ud v:nameU="TxtAState" v:val="VT0(0):26"/>
				<v:ud v:nameU="TxtWState" v:val="VT0(0):26"/>
				<v:ud v:nameU="PosCH1" v:val="VT0(0):26"/>
				<v:ud v:nameU="MinArc" v:val="VT0(0.098425196850394):24"/>
				<v:ud v:nameU="Scale" v:val="VT0(1):26"/>
				<v:ud v:nameU="AntiScale" v:val="VT0(1):26"/>
				<v:ud v:nameU="visVersion" v:val="VT0(15):26"/>
				<v:ud v:nameU="TxtW" v:prompt="" v:val="VT0(0.97222222222222):29"/>
				<v:ud v:nameU="TxtA" v:prompt="" v:val="VT0(-1.5707963267949):32"/>
			</v:userDefs>
			<v:textBlock v:margins="rect(4,4,4,4)" v:tabSpace="42.5197"/>
			<v:textRect cx="166.188" cy="744.161" width="70" height="41.6033" transform="rotate(-90)"/>
			<path d="M0 694.99 L0 702.07 A162.992 7.08661 -180 1 0 325.98 702.07 L325.98 694.99" class="st16"/>
			<text x="-774.14" y="-170.39" transform="rotate(90) scale(-1,1)" class="st17" v:langID="1033"><v:paragraph
						v:horizAlign="1"/><v:tabList/>1. Sample<v:newlineChar/><tspan x="-759.01" dy="1.2em" class="st8">Arch.</tspan></text>		</g>
		<g id="shape58-187" v:mID="58" v:groupContext="shape" transform="translate(779.661,709.161) rotate(90) scale(-1,1)">
			<title>Side parenthesis.58</title>
			<desc>2. Train A</desc>
			<v:userDefs>
				<v:ud v:nameU="TxtW" v:val="VT0(0.55555555555556):29"/>
				<v:ud v:nameU="TxtA" v:val="VT0(1.5707963267949):37"/>
				<v:ud v:nameU="TxtAState" v:val="VT0(0):26"/>
				<v:ud v:nameU="TxtWState" v:val="VT0(0):26"/>
				<v:ud v:nameU="PosCH1" v:val="VT0(0):26"/>
				<v:ud v:nameU="MinArc" v:val="VT0(0.098425196850394):24"/>
				<v:ud v:nameU="Scale" v:val="VT0(1):26"/>
				<v:ud v:nameU="AntiScale" v:val="VT0(1):26"/>
				<v:ud v:nameU="visVersion" v:val="VT0(15):26"/>
				<v:ud v:nameU="TxtW" v:prompt="" v:val="VT0(0.97222222222222):29"/>
				<v:ud v:nameU="TxtA" v:prompt="" v:val="VT0(-1.5707963267949):32"/>
			</v:userDefs>
			<v:textBlock v:margins="rect(4,4,4,4)" v:tabSpace="42.5197"/>
			<v:textRect cx="119.222" cy="744.161" width="70" height="24.8035" transform="rotate(-90)"/>
			<path d="M0 694.99 L0 702.07 A116.929 7.08661 -180 1 0 233.86 702.07 L233.86 694.99" class="st16"/>
			<text x="-772.07" y="-115.02" transform="rotate(90) scale(-1,1)" class="st17" v:langID="1033"><v:paragraph
						v:horizAlign="1"/><v:tabList/>2. Train A</text>		</g>
		<g id="group59-192" transform="translate(105.933,-92.126)" v:mID="59" v:groupContext="group" v:layerMember="2">
			<v:userDefs>
				<v:ud v:nameU="visVersion" v:prompt="" v:val="VT0(15):26"/>
				<v:ud v:nameU="ConnGap" v:prompt="" v:val="VT0(0.00012908222537757):24"/>
			</v:userDefs>
			<title>Subsidiary.59</title>
			<desc>A</desc>
			<g id="shape60-193" v:mID="60" v:groupContext="shape" v:layerMember="2">
				<title>Sheet.60</title>
				<path d="M42.92 638.3 L27.33 638.3 L27.33 661.15 L42.92 661.15 L42.92 638.3 ZM70.87 679.17 L50.31 679.17 L50.31 709.16
							 L70.87 709.16 L70.87 679.17 ZM46.06 679.17 L25.51 679.17 L25.51 709.16 L46.06 709.16 L46.06 679.17 ZM20.55
							 679.17 L0 679.17 L0 709.16 L20.55 709.16 L20.55 679.17 Z" class="st11"/>
			</g>
			<g id="shape61-195" v:mID="61" v:groupContext="shape" v:layerMember="2" transform="translate(6.37795,-5.20327)">
				<title>Sheet.61</title>
				<v:userDefs>
					<v:ud v:nameU="SurroundingRegionColor" v:prompt="" v:val="VT5(#23b8e9)"/>
					<v:ud v:nameU="SurroundingRegionColor" v:prompt="" v:val="VT5(#bfeaf8)"/>
				</v:userDefs>
				<path d="M30.74 648.97 L32.6 648.97 L32.6 647.99 L29.76 647.99 L29.76 653.29 L30.74 653.29 L30.74 648.97 ZM30.74
							 656.11 L32.6 656.11 L32.6 655.13 L29.76 655.13 L29.76 660.43 L30.74 660.43 L30.74 656.11 ZM25.77 648.97
							 L27.64 648.97 L27.64 647.99 L24.8 647.99 L24.8 653.29 L25.77 653.29 L25.77 648.97 ZM25.77 656.11 L27.64
							 656.11 L27.64 655.13 L24.8 655.13 L24.8 660.43 L25.77 660.43 L25.77 656.11 ZM56.25 690.55 L58.11 690.55
							 L58.11 689.57 L55.28 689.57 L55.28 694.88 L56.25 694.88 L56.25 690.55 ZM56.25 697.69 L58.11 697.69 L58.11
							 696.72 L55.28 696.72 L55.28 702.02 L56.25 702.02 L56.25 697.69 ZM56.25 704.84 L58.11 704.84 L58.11 703.86
							 L55.28 703.86 L55.28 709.16 L56.25 709.16 L56.25 704.84 ZM51.29 690.55 L53.15 690.55 L53.15 689.57 L50.31
							 689.57 L50.31 694.88 L51.29 694.88 L51.29 690.55 ZM51.29 697.69 L53.15 697.69 L53.15 696.72 L50.31 696.72
							 L50.31 702.02 L51.29 702.02 L51.29 697.69 ZM51.29 704.84 L53.15 704.84 L53.15 703.86 L50.31 703.86 L50.31
							 709.16 L51.29 709.16 L51.29 704.84 ZM31.44 690.55 L33.31 690.55 L33.31 689.57 L30.47 689.57 L30.47 694.88
							 L31.44 694.88 L31.44 690.55 ZM31.44 697.69 L33.31 697.69 L33.31 696.72 L30.47 696.72 L30.47 702.02 L31.44
							 702.02 L31.44 697.69 ZM31.44 704.84 L33.31 704.84 L33.31 703.86 L30.47 703.86 L30.47 709.16 L31.44 709.16
							 L31.44 704.84 ZM26.48 690.55 L28.35 690.55 L28.35 689.57 L25.51 689.57 L25.51 694.88 L26.48 694.88 L26.48
							 690.55 ZM26.48 697.69 L28.35 697.69 L28.35 696.72 L25.51 696.72 L25.51 702.02 L26.48 702.02 L26.48 697.69
							 ZM26.48 704.84 L28.35 704.84 L28.35 703.86 L25.51 703.86 L25.51 709.16 L26.48 709.16 L26.48 704.84 ZM5.93
							 690.55 L7.8 690.55 L7.8 689.57 L4.96 689.57 L4.96 694.88 L5.93 694.88 L5.93 690.55 ZM5.93 697.69 L7.8
							 697.69 L7.8 696.72 L4.96 696.72 L4.96 702.02 L5.93 702.02 L5.93 697.69 ZM5.93 704.84 L7.8 704.84 L7.8
							 703.86 L4.96 703.86 L4.96 709.16 L5.93 709.16 L5.93 704.84 ZM0.97 690.55 L2.83 690.55 L2.83 689.57 L0
							 689.57 L0 694.88 L0.97 694.88 L0.97 690.55 ZM0.97 697.69 L2.83 697.69 L2.83 696.72 L0 696.72 L0 702.02
							 L0.97 702.02 L0.97 697.69 ZM0.97 704.84 L2.83 704.84 L2.83 703.86 L0 703.86 L0 709.16 L0.97 709.16 L0.97
							 704.84 Z" class="st12"/>
			</g>
			<g id="shape62-198" v:mID="62" v:groupContext="shape" v:layerMember="2" transform="translate(9.56693,-33.8612)">
				<title>Sheet.62</title>
				<path d="M25.51 698.01 L25.51 709.16" class="st13"/>
				<path d="M51.02 709.16 L51.02 701.52 L0 701.48 L0 709.16" class="st13"/>
			</g>
			<g id="shape59-202" v:mID="59" v:groupContext="groupContent" v:layerMember="2">
				<v:textBlock v:margins="rect(4,4,4,4)" v:tabSpace="42.5197"/>
				<v:textRect cx="35.4331" cy="731.163" width="31.58" height="44.0037"/>
				<text x="27.4" y="740.16" class="st14" v:langID="1033"><v:paragraph v:horizAlign="1"/><v:tabList/>A</text>			</g>
		</g>
		<g id="shape63-204" v:mID="63" v:groupContext="shape" transform="translate(297.272,1312.02) rotate(180)">
			<title>Modern Arrow</title>
			<v:userDefs>
				<v:ud v:nameU="CtrlAngle" v:prompt="" v:val="VT0(0.78539816339745):32"/>
				<v:ud v:nameU="visVersion" v:prompt="" v:val="VT0(15):26"/>
			</v:userDefs>
			<path d="M0 709.16 L27 682.16 L33.36 688.53 L17.23 704.66 L70.87 704.66 L70.87 713.66 L17.23 713.66 L33.36 729.8 L27
						 736.16 L0 709.16 Z" class="st18"/>
		</g>
		<g id="group67-208" transform="translate(559.476,759.268) rotate(180)" v:mID="67" v:groupContext="group">
			<v:userDefs>
				<v:ud v:nameU="ArcHeight" v:prompt="" v:val="VT0(0.88582677165354):24"/>
				<v:ud v:nameU="visVersion" v:prompt="" v:val="VT0(15):26"/>
				<v:ud v:nameU="ArcHeight" v:prompt="" v:val="VT0(7.3818900276392):24"/>
			</v:userDefs>
			<title>Curved Right Arrow</title>
			<g id="shape68-209" v:mID="68" v:groupContext="shape">
				<title>Sheet.68</title>
				<v:userDefs>
					<v:ud v:nameU="BarWidth" v:prompt="" v:val="VT0(0.19685039370079):24"/>
					<v:ud v:nameU="ArrowTipY" v:prompt="" v:val="VT0(0.19685039370079):24"/>
					<v:ud v:nameU="ArcHeight" v:prompt="" v:val="VT0(0.88582677165354):24"/>
					<v:ud v:nameU="FillForegnd" v:prompt="" v:val="VT5(1)"/>
					<v:ud v:nameU="BarWidth" v:prompt="" v:val="VT0(0.1968504):1"/>
					<v:ud v:nameU="ArcHeight" v:prompt="" v:val="VT0(7.3818900276392):24"/>
					<v:ud v:nameU="FillForegnd" v:prompt="" v:val="VT5(#23b8e9)"/>
				</v:userDefs>
				<path d="M56.69 156.41 L56.69 170.58 A56.6846 265.709 -180 0 0 -0 436.33 L0 422.15 A56.6846 265.709 0 0 1 56.69 156.41
							 Z" class="st19"/>
			</g>
			<g id="shape67-213" v:mID="67" v:groupContext="groupContent">
				<path d="M56.69 694.99 L42.52 680.81 L42.52 687.9 A42.5134 265.709 0 0 1 -0 422.15 L0 436.33 A42.5134 265.709 -180
							 0 0 42.52 702.07 L42.52 709.16 L56.69 694.99 Z" class="st20"/>
			</g>
		</g>
		<g id="group69-216" transform="translate(311.445,-92.126)" v:mID="69" v:groupContext="group" v:layerMember="2">
			<v:userDefs>
				<v:ud v:nameU="visVersion" v:prompt="" v:val="VT0(15):26"/>
				<v:ud v:nameU="ConnGap" v:prompt="" v:val="VT0(0.00012908222537757):24"/>
			</v:userDefs>
			<title>Subsidiary.69</title>
			<desc>ATrained</desc>
			<g id="shape70-217" v:mID="70" v:groupContext="shape" v:layerMember="2">
				<title>Sheet.70</title>
				<path d="M42.92 638.3 L27.33 638.3 L27.33 661.15 L42.92 661.15 L42.92 638.3 ZM70.87 679.17 L50.31 679.17 L50.31 709.16
							 L70.87 709.16 L70.87 679.17 ZM46.06 679.17 L25.51 679.17 L25.51 709.16 L46.06 709.16 L46.06 679.17 ZM20.55
							 679.17 L0 679.17 L0 709.16 L20.55 709.16 L20.55 679.17 Z" class="st21"/>
			</g>
			<g id="shape71-219" v:mID="71" v:groupContext="shape" v:layerMember="2" transform="translate(6.37795,-5.20327)">
				<title>Sheet.71</title>
				<v:userDefs>
					<v:ud v:nameU="SurroundingRegionColor" v:prompt="" v:val="VT5(#23b8e9)"/>
					<v:ud v:nameU="SurroundingRegionColor" v:prompt="" v:val="VT5(#16b0e3)"/>
				</v:userDefs>
				<path d="M30.74 648.97 L32.6 648.97 L32.6 647.99 L29.76 647.99 L29.76 653.29 L30.74 653.29 L30.74 648.97 ZM30.74
							 656.11 L32.6 656.11 L32.6 655.13 L29.76 655.13 L29.76 660.43 L30.74 660.43 L30.74 656.11 ZM25.77 648.97
							 L27.64 648.97 L27.64 647.99 L24.8 647.99 L24.8 653.29 L25.77 653.29 L25.77 648.97 ZM25.77 656.11 L27.64
							 656.11 L27.64 655.13 L24.8 655.13 L24.8 660.43 L25.77 660.43 L25.77 656.11 ZM56.25 690.55 L58.11 690.55
							 L58.11 689.57 L55.28 689.57 L55.28 694.88 L56.25 694.88 L56.25 690.55 ZM56.25 697.69 L58.11 697.69 L58.11
							 696.72 L55.28 696.72 L55.28 702.02 L56.25 702.02 L56.25 697.69 ZM56.25 704.84 L58.11 704.84 L58.11 703.86
							 L55.28 703.86 L55.28 709.16 L56.25 709.16 L56.25 704.84 ZM51.29 690.55 L53.15 690.55 L53.15 689.57 L50.31
							 689.57 L50.31 694.88 L51.29 694.88 L51.29 690.55 ZM51.29 697.69 L53.15 697.69 L53.15 696.72 L50.31 696.72
							 L50.31 702.02 L51.29 702.02 L51.29 697.69 ZM51.29 704.84 L53.15 704.84 L53.15 703.86 L50.31 703.86 L50.31
							 709.16 L51.29 709.16 L51.29 704.84 ZM31.44 690.55 L33.31 690.55 L33.31 689.57 L30.47 689.57 L30.47 694.88
							 L31.44 694.88 L31.44 690.55 ZM31.44 697.69 L33.31 697.69 L33.31 696.72 L30.47 696.72 L30.47 702.02 L31.44
							 702.02 L31.44 697.69 ZM31.44 704.84 L33.31 704.84 L33.31 703.86 L30.47 703.86 L30.47 709.16 L31.44 709.16
							 L31.44 704.84 ZM26.48 690.55 L28.35 690.55 L28.35 689.57 L25.51 689.57 L25.51 694.88 L26.48 694.88 L26.48
							 690.55 ZM26.48 697.69 L28.35 697.69 L28.35 696.72 L25.51 696.72 L25.51 702.02 L26.48 702.02 L26.48 697.69
							 ZM26.48 704.84 L28.35 704.84 L28.35 703.86 L25.51 703.86 L25.51 709.16 L26.48 709.16 L26.48 704.84 ZM5.93
							 690.55 L7.8 690.55 L7.8 689.57 L4.96 689.57 L4.96 694.88 L5.93 694.88 L5.93 690.55 ZM5.93 697.69 L7.8
							 697.69 L7.8 696.72 L4.96 696.72 L4.96 702.02 L5.93 702.02 L5.93 697.69 ZM5.93 704.84 L7.8 704.84 L7.8
							 703.86 L4.96 703.86 L4.96 709.16 L5.93 709.16 L5.93 704.84 ZM0.97 690.55 L2.83 690.55 L2.83 689.57 L0
							 689.57 L0 694.88 L0.97 694.88 L0.97 690.55 ZM0.97 697.69 L2.83 697.69 L2.83 696.72 L0 696.72 L0 702.02
							 L0.97 702.02 L0.97 697.69 ZM0.97 704.84 L2.83 704.84 L2.83 703.86 L0 703.86 L0 709.16 L0.97 709.16 L0.97
							 704.84 Z" class="st12"/>
			</g>
			<g id="shape72-222" v:mID="72" v:groupContext="shape" v:layerMember="2" transform="translate(9.56693,-33.8612)">
				<title>Sheet.72</title>
				<path d="M25.51 698.01 L25.51 709.16" class="st13"/>
				<path d="M51.02 709.16 L51.02 701.52 L0 701.48 L0 709.16" class="st13"/>
			</g>
			<g id="shape69-226" v:mID="69" v:groupContext="groupContent" v:layerMember="2">
				<v:textBlock v:margins="rect(4,4,4,4)" v:tabSpace="42.5197"/>
				<v:textRect cx="35.4331" cy="731.163" width="68.71" height="44.0037"/>
				<text x="8.83" y="740.16" class="st14" v:langID="1033"><v:paragraph v:horizAlign="1"/><v:tabList/>A<tspan
							dy="-0.397em" class="st22" v:baseFontSize="18">Trained</tspan></text>			</g>
		</g>
		<g id="group73-229" transform="translate(417.744,-70.8661)" v:mID="73" v:groupContext="group" v:layerMember="2">
			<v:userDefs>
				<v:ud v:nameU="visVersion" v:prompt="" v:val="VT0(15):26"/>
				<v:ud v:nameU="ConnGap" v:prompt="" v:val="VT0(0.00012908222537757):24"/>
			</v:userDefs>
			<title>Auditing</title>
			<desc>Validate –&#62; Validation Acc = R</desc>
			<g id="shape74-230" v:mID="74" v:groupContext="shape" v:layerMember="2" transform="translate(0,-15.4301)">
				<title>Sheet.74</title>
				<path d="M33.19 678.09 A23.1746 23.1746 25.97 0 1 33.19 679.19 A15.4666 15.4666 88.81 0 1 47.65 679.72 L51.81 672.21
							 L47.41 669.67 C47.44 669.33 47.46 668.98 47.46 668.62 C47.46 668.27 47.44 667.92 47.41 667.58 L51.81
							 665.04 L47.66 657.84 L43.25 660.38 C42.69 659.97 42.08 659.62 41.44 659.33 L41.44 654.25 L33.13 654.25
							 L33.13 659.33 C32.48 659.62 31.88 659.97 31.31 660.38 L26.91 657.84 L22.76 665.03 L27.16 667.58 C27.12
							 667.92 27.1 668.27 27.1 668.62 C27.1 668.98 27.12 669.33 27.16 669.67 L22.76 672.21 L26.91 679.41 L31.32
							 676.87 A5.83576 5.83576 -180 0 0 33.19 678.09 ZM37.28 672.67 C35.05 672.67 33.24 670.85 33.24 668.62
							 C33.24 666.4 35.05 664.58 37.28 664.58 C39.51 664.58 41.32 666.4 41.32 668.62 C41.32 670.85 39.51 672.67
							 37.28 672.67 ZM30.81 680.55 L29.87 679.14 L24.43 682.2 C23.76 681.71 23.04 681.29 22.27 680.95 L22.27
							 674.89 L12.36 674.89 L12.36 680.95 C11.6 681.29 10.87 681.71 10.2 682.2 L4.95 679.17 L0 687.74 L5.25
							 690.77 C5.2 691.18 5.18 691.6 5.18 692.02 C5.18 692.45 5.2 692.86 5.25 693.27 L0 696.3 L4.95 704.88
							 L10.2 701.85 C10.87 702.34 11.6 702.76 12.36 703.1 L12.36 709.16 L22.27 709.16 L22.27 703.1 C23.03 702.76
							 23.76 702.34 24.43 701.85 L29.78 704.74 A15.456 15.456 84.39 0 1 30.81 680.55 L30.81 680.55 ZM17.32
							 697.04 C14.56 697.04 12.32 694.8 12.32 692.04 C12.32 689.29 14.56 687.04 17.32 687.04 C20.07 687.04
							 22.31 689.29 22.31 692.04 C22.31 694.8 20.07 697.04 17.32 697.04 ZM47.25 683.64 A11.9509 11.9509 -180
							 0 0 31.89 701.94 L37.63 699.36 L34.26 691.8 L37.93 687.77 L45.25 690.08 L47.25 683.64 Z" class="st23"/>
				<path d="M33.19 678.09 A23.1746 23.1746 25.97 0 1 33.19 679.19 A15.4666 15.4666 88.81 0 1 47.65 679.72 L51.81 672.21
							 L47.41 669.67 C47.44 669.33 47.46 668.98 47.46 668.62 C47.46 668.27 47.44 667.92 47.41 667.58 L51.81
							 665.04 L47.66 657.84 L43.25 660.38 C42.69 659.97 42.08 659.62 41.44 659.33 L41.44 654.25 L33.13 654.25
							 L33.13 659.33 C32.48 659.62 31.88 659.97 31.31 660.38 L26.91 657.84 L22.76 665.03 L27.16 667.58 C27.12
							 667.92 27.1 668.27 27.1 668.62 C27.1 668.98 27.12 669.33 27.16 669.67 L22.76 672.21 L26.91 679.41 L31.32
							 676.87 A5.83576 5.83576 -180 0 0 33.19 678.09M37.28 672.67 C35.05 672.67 33.24 670.85 33.24 668.62 C33.24
							 666.4 35.05 664.58 37.28 664.58 C39.51 664.58 41.32 666.4 41.32 668.62 C41.32 670.85 39.51 672.67 37.28
							 672.67M30.81 680.55 L29.87 679.14 L24.43 682.2 C23.76 681.71 23.04 681.29 22.27 680.95 L22.27 674.89
							 L12.36 674.89 L12.36 680.95 C11.6 681.29 10.87 681.71 10.2 682.2 L4.95 679.17 L0 687.74 L5.25 690.77
							 C5.2 691.18 5.18 691.6 5.18 692.02 C5.18 692.45 5.2 692.86 5.25 693.27 L0 696.3 L4.95 704.88 L10.2 701.85
							 C10.87 702.34 11.6 702.76 12.36 703.1 L12.36 709.16 L22.27 709.16 L22.27 703.1 C23.03 702.76 23.76 702.34
							 24.43 701.85 L29.78 704.74 A15.456 15.456 84.39 0 1 30.81 680.55M17.32 697.04 C14.56 697.04 12.32 694.8
							 12.32 692.04 C12.32 689.29 14.56 687.04 17.32 687.04 C20.07 687.04 22.31 689.29 22.31 692.04 C22.31
							 694.8 20.07 697.04 17.32 697.04M47.25 683.64 A11.9509 11.9509 -180 0 0 31.89 701.94 L37.63 699.36 L34.26
							 691.8 L37.93 687.77 L45.25 690.08 L47.25 683.64" class="st24"/>
			</g>
			<g id="shape75-234" v:mID="75" v:groupContext="shape" v:layerMember="2" transform="translate(24.4388,-0.524295)">
				<title>Sheet.75</title>
				<path d="M19.12 693.11 L30.41 681.83 C30.7 680.64 30.85 679.41 30.85 678.13 C30.85 669.61 23.95 662.71 15.43 662.71
							 C6.91 662.71 0 669.61 0 678.13 C0 686.65 6.91 693.56 15.43 693.56 C16.7 693.56 17.94 693.4 19.12 693.11
							 ZM23.88 686.58 C19.22 691.24 11.64 691.24 6.98 686.58 C2.31 681.93 2.31 674.34 6.97 669.68 C11.63 665.02
							 19.22 665.02 23.88 669.68 C28.54 674.34 28.54 681.92 23.88 686.58 ZM30.41 681.83 L19.05 693.18 C20.74
							 694.87 21.43 696.16 24.24 693.33 C28.43 689.11 25.32 692.7 26.9 694.3 C39.87 707.44 42.34 711.35 45.64
							 708.05 L45.65 708.06 C45.65 708.05 45.65 708.05 45.65 708.04 C45.66 708.04 45.66 708.03 45.66 708.03
							 C48.36 705.34 44 702.06 31.6 689.6 C30.01 688.01 26.41 691.13 30.63 686.93 C33.46 684.13 32.17 683.44
							 30.48 681.76 L30.41 681.83 Z" class="st2"/>
			</g>
			<g id="shape73-237" v:mID="73" v:groupContext="groupContent" v:layerMember="2">
				<v:textBlock v:margins="rect(4,4,4,4)" v:tabSpace="42.5197"/>
				<v:textRect cx="35.4331" cy="725.163" width="86.58" height="32.0037"/>
				<text x="11.22" y="722.16" class="st25" v:langID="1033"><v:paragraph v:horizAlign="1"/><v:tabList/>Validate –&#62; <v:newlineChar/><tspan
							x="-2.6" dy="1.2em" class="st8">Validation Acc = R</tspan></text>			</g>
		</g>
		<g id="shape64-240" v:mID="64" v:groupContext="shape" transform="translate(169.713,-92.126)">
			<title>Sheet.64</title>
			<desc>Train</desc>
			<v:textBlock v:margins="rect(4,4,4,4)" v:tabSpace="42.5197"/>
			<v:textRect cx="35.4331" cy="694.988" width="70.87" height="28.3465"/>
			<rect x="0" y="680.815" width="70.8661" height="28.3465" class="st4"/>
			<text x="16.4" y="700.39" class="st26" v:langID="1033"><v:paragraph v:horizAlign="1"/><v:tabList/>Train</text>		</g>
		<g id="shape76-243" v:mID="76" v:groupContext="shape" transform="translate(424.831,-270.079)">
			<title>Sheet.76</title>
			<desc>h: filter height w: filter width k: # filters s: stride</desc>
			<v:textBlock v:margins="rect(4,4,4,4)" v:tabSpace="42.5197" v:verticalAlign="0"/>
			<v:textRect cx="49.6063" cy="670.579" width="99.22" height="77.1654"/>
			<rect x="0" y="631.996" width="99.2126" height="77.1654" class="st4"/>
			<text x="4" y="648.6" class="st17" v:langID="1033"><v:paragraph/><v:tabList/>h: filter height<v:newlineChar/><tspan
						x="4" dy="1.2em" class="st8">w: filter width<v:newlineChar/></tspan><tspan x="4" dy="1.2em" class="st8">k: # filters<v:newlineChar/></tspan><tspan
						x="4" dy="1.2em" class="st8">s: stride</tspan></text>		</g>
		<g id="shape78-249" v:mID="78" v:groupContext="shape" transform="translate(453.177,-673.228)">
			<title>Sheet.78</title>
			<desc>Update Controller With Reward R</desc>
			<v:textBlock v:margins="rect(4,4,4,4)" v:tabSpace="42.5197"/>
			<v:textRect cx="56.6929" cy="694.988" width="113.39" height="28.3465"/>
			<rect x="0" y="680.815" width="113.386" height="28.3465" class="st4"/>
			<text x="12.33" y="691.39" class="st27" v:langID="1033"><v:paragraph v:horizAlign="1"/><v:tabList/>Update Controller <tspan
						x="19.48" dy="1.2em" class="st8">With Reward R</tspan></text>		</g>
	</g>
</svg>
